{"glyphs":{"0":{"ha":825,"x_min":51,"x_max":772,"o":"m 422 896 q 683 778 594 896 q 772 451 772 661 q 749 262 772 347 q 678 115 725 176 q 563 21 632 54 q 404 -12 494 -12 q 141 102 231 -12 q 51 429 51 217 q 76 619 51 533 q 147 767 100 706 q 263 862 193 828 q 422 896 332 896 m 404 742 q 314 667 340 742 q 288 444 288 593 q 293 319 288 375 q 313 223 299 263 q 354 162 328 183 q 421 140 381 140 q 509 214 483 140 q 535 435 535 288 q 529 560 535 504 q 509 657 524 617 q 469 719 494 697 q 404 742 444 742 z "},"1":{"ha":585,"x_min":0,"x_max":457,"o":"m 457 889 l 457 0 l 238 0 l 238 650 q 161 600 201 622 q 76 563 121 578 l 0 704 q 145 776 71 735 q 288 889 219 817 l 457 889 z "},"2":{"ha":701,"x_min":13,"x_max":656,"o":"m 39 808 q 106 838 68 822 q 185 866 143 853 q 270 888 226 879 q 356 896 314 896 q 465 882 414 896 q 552 838 515 868 q 610 760 589 807 q 632 644 632 713 q 585 467 632 554 q 438 275 538 379 l 354 188 l 656 188 l 656 0 l 38 0 l 13 58 q 60 124 35 89 q 111 194 85 158 q 163 265 138 231 q 210 332 188 300 q 297 430 261 388 q 356 507 333 472 q 388 570 378 542 q 397 625 397 599 q 376 687 397 661 q 315 713 354 713 q 231 694 278 713 q 119 646 185 676 l 39 808 z "},"3":{"ha":710,"x_min":38,"x_max":658,"o":"m 353 896 q 460 882 411 896 q 544 842 508 868 q 599 776 579 815 q 618 688 618 738 q 583 571 618 618 q 494 497 547 524 q 617 413 575 474 q 658 281 658 353 q 642 176 658 228 q 586 82 625 124 q 485 14 547 40 q 332 -12 424 -12 q 263 -6 300 -12 q 185 13 225 1 q 108 39 146 25 q 38 68 69 53 l 110 236 q 154 215 129 226 q 206 193 179 203 q 260 176 233 183 q 310 169 286 169 q 389 200 354 169 q 424 289 424 231 q 392 357 424 332 q 324 382 361 382 q 288 379 308 382 q 251 373 268 376 q 219 366 233 369 q 203 363 206 363 l 139 518 q 228 546 185 532 q 306 576 272 560 q 361 614 340 593 q 382 660 382 635 q 367 698 382 683 q 324 713 351 713 q 232 694 275 713 q 135 649 189 676 l 54 813 q 201 872 125 849 q 353 896 276 896 z "},"4":{"ha":733,"x_min":17,"x_max":722,"o":"m 376 211 l 17 211 l 17 333 l 249 889 l 468 889 l 261 393 l 376 393 l 376 588 l 596 625 l 596 393 l 722 393 l 690 211 l 596 211 l 596 0 l 376 0 l 376 211 z "},"5":{"ha":726,"x_min":51,"x_max":671,"o":"m 85 432 l 135 889 l 636 889 l 603 701 l 324 701 l 304 558 q 346 567 322 563 q 401 571 369 571 q 522 547 471 571 q 606 483 572 522 q 655 391 639 443 q 671 283 671 339 q 654 178 671 231 q 600 83 638 125 q 501 14 563 40 q 351 -12 440 -12 q 281 -6 319 -12 q 202 13 242 1 q 124 38 163 24 q 51 68 85 53 l 124 236 q 169 215 144 226 q 221 193 194 203 q 274 176 247 183 q 325 169 301 169 q 403 200 372 169 q 433 293 433 231 q 401 364 433 340 q 317 388 369 388 q 233 377 267 388 q 182 360 200 367 l 85 432 z "},"6":{"ha":760,"x_min":51,"x_max":722,"o":"m 594 700 q 522 719 561 711 q 447 728 483 728 q 334 668 369 728 q 290 513 299 608 q 360 555 319 536 q 454 574 401 574 q 560 556 511 574 q 644 503 608 539 q 701 413 681 468 q 722 285 722 358 q 699 166 722 221 q 633 72 676 111 q 527 10 589 32 q 388 -12 465 -12 q 237 22 300 -12 q 133 116 174 56 q 72 260 92 176 q 51 442 51 343 q 76 613 51 531 q 151 757 101 694 q 277 857 201 819 q 454 894 353 894 q 561 883 506 894 q 653 854 617 872 l 594 700 m 396 422 q 334 406 364 422 q 289 374 304 389 q 322 192 294 246 q 401 138 349 138 q 446 149 428 138 q 475 181 464 161 q 492 228 486 201 q 497 283 497 254 q 470 390 497 357 q 396 422 443 422 z "},"7":{"ha":651,"x_min":1,"x_max":614,"o":"m 614 760 l 343 0 l 110 0 l 358 697 l 35 697 l 1 885 l 614 885 l 614 760 z "},"8":{"ha":771,"x_min":58,"x_max":711,"o":"m 385 -12 q 267 2 325 -12 q 162 47 208 17 q 87 123 115 76 q 58 232 58 169 q 102 363 58 304 q 231 472 146 421 q 127 553 168 504 q 86 671 86 601 q 115 772 86 729 q 188 842 143 815 q 286 883 232 869 q 392 896 340 896 q 496 883 444 896 q 588 842 547 869 q 653 774 628 815 q 678 676 678 732 q 642 565 678 613 q 542 479 606 517 q 669 371 628 433 q 711 240 711 308 q 683 128 711 176 q 610 49 656 81 q 506 3 565 18 q 385 -12 447 -12 m 292 224 q 319 156 292 181 q 392 132 347 132 q 453 158 431 132 q 475 221 475 185 q 449 298 475 261 q 386 367 424 335 q 292 224 292 304 m 453 683 q 430 737 453 722 q 383 751 407 751 q 335 737 360 751 q 310 683 310 722 q 330 619 310 649 q 386 567 350 589 q 453 683 453 613 z "},"9":{"ha":758,"x_min":38,"x_max":708,"o":"m 165 183 q 238 163 199 172 q 314 154 278 154 q 380 170 353 154 q 426 215 407 186 q 455 284 444 244 q 469 372 465 324 q 400 331 442 350 q 306 313 358 313 q 200 330 249 313 q 115 383 151 347 q 58 473 79 418 q 38 601 38 528 q 61 719 38 665 q 128 813 85 774 q 233 873 171 851 q 372 894 294 894 q 523 861 460 894 q 627 768 586 828 q 688 626 668 708 q 708 444 708 543 q 683 273 708 356 q 608 127 658 190 q 483 26 558 64 q 306 -12 407 -12 q 199 -1 254 -12 q 107 28 143 11 l 165 183 m 364 464 q 425 481 396 464 q 471 511 454 497 q 438 692 465 639 q 358 744 410 744 q 315 733 333 744 q 285 703 296 722 q 268 658 274 683 q 263 603 263 632 q 290 497 263 531 q 364 464 317 464 z "}," ":{"ha":354,"x_min":0,"x_max":0,"o":""},"k":{"ha":746,"x_min":79,"x_max":733,"o":"m 299 1007 l 299 643 q 368 687 325 667 q 481 707 411 707 q 561 694 524 707 q 626 658 599 682 q 669 599 653 633 q 685 522 685 565 q 662 419 685 460 q 611 354 639 378 q 539 310 579 326 l 733 0 l 483 0 q 385 188 422 103 q 333 347 347 274 l 332 368 q 364 376 342 369 q 409 395 386 382 q 449 429 432 408 q 467 479 467 450 q 451 528 467 511 q 410 546 435 546 q 356 531 378 546 q 322 496 335 515 q 304 458 310 476 q 299 431 299 439 l 299 0 l 79 0 l 79 969 l 299 1007 z "},"n":{"ha":774,"x_min":24,"x_max":701,"o":"m 481 0 l 481 433 q 469 512 481 482 q 425 542 457 542 q 353 491 386 542 q 319 349 319 440 l 319 0 l 100 0 l 100 361 q 88 499 100 444 q 61 589 76 554 q 24 651 44 628 l 200 707 q 225 675 213 693 q 247 635 236 660 q 264 581 257 611 q 363 676 300 646 q 501 707 426 707 q 656 641 610 707 q 701 465 701 575 l 701 0 l 481 0 z "},"e":{"ha":665,"x_min":38,"x_max":633,"o":"m 38 329 q 65 494 38 422 q 140 613 92 565 q 251 686 188 661 q 390 711 315 711 q 501 695 456 711 q 576 651 547 679 q 619 584 606 622 q 633 501 633 546 q 608 407 633 451 q 537 328 583 363 q 424 272 490 294 q 275 243 358 250 q 310 176 285 201 q 389 150 336 150 q 454 157 419 150 q 518 172 489 164 q 586 194 553 182 l 628 50 q 546 18 590 32 q 459 -3 508 7 q 354 -12 410 -12 q 209 13 269 -12 q 110 82 149 38 q 55 190 72 126 q 38 329 38 253 m 363 554 q 317 539 336 554 q 288 499 299 524 q 271 443 276 474 q 264 383 265 413 q 334 396 306 385 q 381 424 363 407 q 407 460 399 440 q 415 496 415 479 q 401 538 415 522 q 363 554 386 554 z "},"a":{"ha":756,"x_min":38,"x_max":739,"o":"m 663 335 q 674 196 663 251 q 700 107 685 140 q 739 44 717 67 l 563 -11 q 535 24 547 3 q 513 67 524 42 q 496 128 503 93 q 426 27 472 63 q 306 -8 381 -8 q 187 17 238 -8 q 103 87 136 42 q 53 196 69 132 q 38 338 38 260 q 63 485 38 417 q 135 602 89 553 q 244 679 181 651 q 386 707 308 707 q 478 701 429 707 q 567 687 526 694 q 634 673 607 679 q 663 667 661 667 l 663 335 m 342 153 q 381 171 363 153 q 414 219 400 189 q 435 290 428 250 q 443 374 443 329 l 443 535 q 416 542 433 539 q 386 546 399 546 q 331 531 353 546 q 295 491 308 517 q 276 429 282 465 q 271 351 271 393 q 272 277 271 313 q 281 214 274 242 q 303 169 289 186 q 342 153 317 153 z "},"o":{"ha":722,"x_min":38,"x_max":683,"o":"m 367 711 q 608 617 532 711 q 683 356 683 522 q 663 209 683 276 q 602 92 643 142 q 499 15 561 43 q 356 -14 438 -14 q 212 10 272 -14 q 113 81 151 35 q 56 192 75 126 q 38 340 38 258 q 58 488 38 419 q 119 605 78 556 q 222 683 160 654 q 367 711 283 711 m 354 546 q 313 531 329 546 q 287 491 296 517 q 274 431 278 465 q 271 356 271 396 q 275 276 271 314 q 290 211 279 239 q 319 167 300 183 q 368 151 339 151 q 410 167 393 151 q 435 208 426 182 q 448 268 444 233 q 451 342 451 303 q 447 422 451 385 q 433 486 443 458 q 403 530 422 514 q 354 546 383 546 z "},"p":{"ha":763,"x_min":24,"x_max":725,"o":"m 100 -307 l 100 361 q 88 499 100 444 q 61 589 76 554 q 24 651 44 628 l 200 707 q 231 667 217 690 q 253 617 242 647 q 269 549 264 588 q 342 667 296 628 q 464 707 389 707 q 578 682 529 707 q 660 612 628 657 q 709 503 693 567 q 725 360 725 439 q 700 215 725 282 q 630 98 675 147 q 524 20 585 49 q 392 -8 463 -8 q 319 0 353 -8 l 319 -269 l 100 -307 m 421 546 q 381 528 400 546 q 349 483 363 511 q 327 416 335 454 q 319 336 319 378 l 319 163 q 346 156 329 160 q 376 153 363 153 q 432 167 410 153 q 467 208 454 182 q 486 269 481 233 q 492 346 492 304 q 490 421 492 385 q 481 485 489 457 q 460 529 474 513 q 421 546 446 546 z "},"b":{"ha":742,"x_min":79,"x_max":704,"o":"m 79 969 l 299 1007 l 299 638 q 443 707 353 707 q 558 682 508 707 q 640 612 607 657 q 688 503 672 567 q 704 360 704 439 q 678 213 704 281 q 607 97 653 146 q 497 19 561 47 q 356 -8 433 -8 q 266 -3 313 -8 q 180 10 219 3 q 113 23 140 17 q 79 32 85 29 l 79 969 m 400 546 q 359 526 378 546 q 327 475 340 507 q 306 400 314 443 q 299 311 299 357 l 299 163 q 324 156 307 160 q 356 153 342 153 q 411 167 389 153 q 447 208 433 182 q 465 269 460 233 q 471 346 471 304 q 469 421 471 385 q 460 485 468 457 q 439 529 453 513 q 400 546 425 546 z "},"q":{"ha":742,"x_min":38,"x_max":663,"o":"m 663 -307 l 443 -269 l 443 60 q 382 10 417 28 q 299 -8 347 -8 q 184 17 233 -8 q 102 87 135 42 q 53 196 69 132 q 38 338 38 260 q 63 485 38 417 q 135 602 89 553 q 244 679 181 651 q 386 707 308 707 q 478 700 429 707 q 568 686 528 693 q 663 667 615 678 l 663 -307 m 342 153 q 383 172 364 153 q 415 224 401 192 q 435 298 428 256 q 443 386 443 340 l 443 535 q 416 542 433 539 q 386 546 399 546 q 331 531 353 546 q 295 491 308 517 q 276 429 282 465 q 271 351 271 393 q 272 277 271 313 q 281 214 274 242 q 303 169 289 186 q 342 153 317 153 z "},"u":{"ha":774,"x_min":72,"x_max":750,"o":"m 454 697 l 674 697 l 674 335 q 685 196 674 251 q 711 107 696 140 q 750 44 728 67 l 574 -11 q 549 21 561 1 q 526 60 538 36 q 508 117 515 85 q 409 22 472 51 q 272 -8 346 -8 q 180 9 218 -8 q 117 58 142 26 q 83 133 93 89 q 72 233 72 178 l 72 697 l 293 697 l 293 263 q 305 184 293 214 q 349 154 317 154 q 421 206 388 154 q 454 350 454 258 l 454 697 z "},"h":{"ha":753,"x_min":79,"x_max":681,"o":"m 299 644 q 382 692 335 676 q 481 707 429 707 q 635 642 589 707 q 681 465 681 576 l 681 0 l 460 0 l 460 433 q 448 512 460 482 q 404 542 436 542 q 367 530 386 542 q 333 495 349 518 q 308 440 318 472 q 299 367 299 407 l 299 0 l 79 0 l 79 969 l 299 1007 l 299 644 z "},"m":{"ha":1108,"x_min":24,"x_max":1035,"o":"m 815 0 l 815 433 q 807 512 815 482 q 769 542 799 542 q 707 494 736 542 q 678 367 678 446 l 678 0 l 457 0 l 457 433 q 449 512 457 482 q 411 542 442 542 q 348 492 376 542 q 319 360 319 443 l 319 0 l 100 0 l 100 361 q 88 499 100 444 q 61 589 76 554 q 24 651 44 628 l 200 707 q 224 675 211 693 q 245 635 235 660 q 264 581 256 611 q 356 676 297 646 q 488 707 415 707 q 587 683 549 707 q 649 613 625 658 q 735 685 685 663 q 846 707 785 707 q 936 690 900 707 q 994 641 972 672 q 1025 565 1015 610 q 1035 465 1035 519 l 1035 0 l 815 0 z "},"i":{"ha":396,"x_min":58,"x_max":386,"o":"m 249 -6 q 121 35 169 -6 q 72 151 72 76 l 72 697 l 292 697 l 292 214 q 301 171 292 182 q 331 160 311 160 q 353 162 342 160 q 367 165 364 164 l 386 28 q 374 22 385 26 q 344 10 363 17 q 301 -1 326 4 q 249 -6 276 -6 m 185 1032 q 274 997 243 1032 q 304 910 304 963 q 273 819 304 856 q 179 783 242 783 q 90 819 121 783 q 58 903 58 854 q 90 995 58 958 q 185 1032 122 1032 z "},"s":{"ha":588,"x_min":24,"x_max":550,"o":"m 294 710 q 392 701 347 710 q 472 681 438 692 q 546 651 513 667 l 476 496 q 448 510 465 501 q 410 526 431 518 q 368 540 390 535 q 325 546 346 546 q 288 536 303 546 q 272 506 272 526 q 301 462 272 483 q 376 421 329 440 q 505 338 460 386 q 550 210 550 290 q 534 124 550 165 q 487 53 518 83 q 408 4 456 22 q 300 -14 361 -14 q 209 -7 251 -14 q 131 10 167 0 q 68 31 96 21 q 24 50 40 42 l 96 210 q 120 197 103 207 q 160 178 138 188 q 209 160 183 168 q 258 153 235 153 q 306 164 288 153 q 325 197 325 175 q 302 244 325 224 q 243 279 279 265 q 94 373 139 321 q 49 503 49 425 q 65 585 49 547 q 114 650 82 622 q 191 694 146 678 q 294 710 236 710 z "},"j":{"ha":379,"x_min":-56,"x_max":315,"o":"m 83 697 l 301 697 l 301 60 q 282 -75 301 -18 q 227 -174 263 -132 q 143 -249 192 -217 q 36 -310 94 -282 l -56 -160 q 17 -110 -11 -135 q 59 -58 44 -85 q 78 -2 74 -31 q 83 57 83 26 l 83 697 m 194 1032 q 284 997 253 1032 q 315 910 315 963 q 284 819 315 856 q 190 783 253 783 q 101 819 132 783 q 69 903 69 854 q 101 995 69 958 q 194 1032 132 1032 z "},"l":{"ha":446,"x_min":72,"x_max":436,"o":"m 256 -6 q 173 8 207 -6 q 116 47 139 22 q 83 103 93 71 q 72 172 72 135 l 72 969 l 292 1007 l 292 219 q 303 173 292 186 q 347 160 315 160 q 381 163 363 160 q 415 168 400 165 l 436 31 q 366 8 415 21 q 256 -6 317 -6 z "},"f":{"ha":513,"x_min":-11,"x_max":558,"o":"m 453 804 q 430 827 446 815 q 393 839 414 839 q 339 817 361 839 q 317 756 317 796 q 322 697 317 724 l 500 697 l 472 531 l 349 531 l 349 24 q 324 -110 349 -56 q 263 -201 300 -164 q 178 -264 225 -239 q 89 -310 132 -289 l -11 -147 q 92 -73 56 -112 q 129 19 129 -33 l 129 531 l 22 531 l 22 697 l 129 697 q 116 740 121 718 q 111 788 111 763 q 129 878 111 839 q 181 946 147 918 q 259 988 214 974 q 358 1003 304 1003 q 480 978 435 1003 q 558 915 525 953 l 453 804 z "},"c":{"ha":582,"x_min":38,"x_max":578,"o":"m 469 500 q 435 533 453 519 q 389 547 417 547 q 351 542 372 547 q 313 516 331 536 q 283 458 294 496 q 271 353 271 419 q 284 248 271 288 q 317 188 297 208 q 362 160 338 167 q 408 153 386 153 q 444 157 425 153 q 481 166 464 161 q 511 176 499 171 q 525 181 524 181 l 565 35 l 550 28 q 508 10 535 19 q 442 -6 481 1 q 358 -12 404 -12 q 213 13 274 -12 q 113 82 151 38 q 56 190 74 126 q 38 329 38 253 q 63 494 38 422 q 134 614 89 565 q 241 687 179 663 q 375 711 303 711 q 494 684 443 711 q 578 613 546 657 l 469 500 z "},"r":{"ha":553,"x_min":24,"x_max":549,"o":"m 426 497 q 393 489 411 497 q 358 463 375 481 q 331 419 342 446 q 319 354 319 392 l 319 0 l 100 0 l 100 361 q 88 499 100 444 q 61 589 76 554 q 24 651 44 628 l 200 707 q 224 675 211 693 q 244 636 233 660 q 263 582 256 613 q 345 678 297 649 q 458 707 393 707 q 510 702 488 707 q 549 692 533 697 l 492 482 q 466 492 482 488 q 426 497 450 497 z "},"t":{"ha":544,"x_min":14,"x_max":543,"o":"m 14 692 l 128 692 l 151 835 l 342 876 l 342 692 l 506 692 l 479 531 l 342 531 l 342 221 q 406 160 342 160 q 472 167 440 160 q 506 175 489 171 l 543 28 q 466 6 515 18 q 346 -6 417 -6 q 183 38 242 -6 q 124 183 124 81 l 124 531 l 14 531 l 14 692 z "},"v":{"ha":729,"x_min":72,"x_max":678,"o":"m 661 697 q 672 625 667 675 q 678 521 678 575 q 655 276 678 376 q 586 112 632 175 q 470 20 540 49 q 304 -8 400 -8 q 128 60 185 -8 q 72 240 72 128 l 72 697 l 292 697 l 292 244 q 303 176 292 204 q 342 147 314 147 q 397 180 375 147 q 433 265 419 213 q 452 381 446 317 q 458 510 458 446 q 452 624 458 579 q 442 697 446 669 l 661 697 z "},"w":{"ha":1071,"x_min":72,"x_max":1018,"o":"m 1003 697 q 1013 625 1007 675 q 1018 521 1018 575 q 997 276 1018 376 q 932 112 976 175 q 819 20 888 49 q 656 -8 750 -8 q 489 83 544 -8 q 402 10 451 29 q 283 -8 353 -8 q 185 9 225 -8 q 119 59 144 26 q 83 137 94 92 q 72 239 72 182 l 72 697 l 292 697 l 292 244 q 306 176 292 204 q 347 147 319 147 q 415 212 393 147 q 436 422 436 276 l 436 697 l 656 697 l 656 668 q 655 594 656 639 q 654 496 654 550 q 653 392 654 442 q 653 301 653 342 q 653 244 653 261 q 667 176 653 204 q 708 147 681 147 q 757 177 739 147 q 784 257 775 207 q 796 373 793 307 q 799 510 799 439 q 792 625 799 581 q 783 697 786 669 l 1003 697 z "},"y":{"ha":760,"x_min":72,"x_max":721,"o":"m 669 321 q 677 238 669 276 q 694 163 685 200 q 713 88 704 126 q 721 4 721 49 q 639 -220 721 -142 q 415 -299 557 -299 q 282 -283 351 -299 q 146 -240 213 -268 l 197 -71 q 304 -103 258 -92 q 401 -115 350 -115 q 491 -83 457 -115 q 525 8 525 -51 q 521 59 525 36 q 506 110 517 82 q 407 19 469 47 q 272 -8 344 -8 q 180 9 218 -8 q 117 58 142 26 q 83 133 93 89 q 72 233 72 178 l 72 697 l 293 697 l 293 263 q 305 184 293 214 q 349 154 317 154 q 385 167 367 154 q 419 205 404 181 q 444 264 435 229 q 454 342 454 299 l 454 697 l 675 697 l 669 321 z "},"x":{"ha":710,"x_min":-18,"x_max":719,"o":"m -18 0 l 218 367 l 11 692 l 258 692 l 342 558 q 356 530 349 547 q 371 496 364 513 q 393 533 382 511 q 411 569 404 556 q 442 640 431 608 q 456 692 453 672 l 683 692 q 663 622 679 665 q 614 521 646 579 q 558 439 590 478 q 494 367 526 400 l 719 0 l 475 0 l 383 160 q 368 188 376 171 q 351 222 360 204 l 319 160 l 224 0 l -18 0 z "},"z":{"ha":588,"x_min":31,"x_max":564,"o":"m 31 0 l 31 122 l 294 533 q 244 531 268 532 q 197 531 221 531 l 69 531 l 42 692 l 551 692 l 551 557 l 301 157 q 337 159 319 158 q 374 160 354 160 l 564 160 l 564 0 l 31 0 z "},".":{"ha":392,"x_min":72,"x_max":318,"o":"m 197 235 q 287 200 256 235 q 318 113 318 165 q 287 23 318 60 q 194 -14 256 -14 q 104 22 136 -14 q 72 107 72 58 q 104 198 72 161 q 197 235 136 235 z "},",":{"ha":415,"x_min":44,"x_max":342,"o":"m 101 163 q 110 169 103 164 q 133 180 118 174 q 171 191 147 186 q 226 196 194 196 q 316 158 290 196 q 342 69 342 121 q 290 -102 342 -19 q 125 -243 239 -185 l 44 -133 q 112 -56 94 -97 q 129 24 129 -15 q 117 103 129 67 q 101 163 104 139 z "},":":{"ha":419,"x_min":93,"x_max":339,"o":"m 218 235 q 308 200 276 235 q 339 113 339 165 q 308 23 339 60 q 215 -14 276 -14 q 125 22 157 -14 q 93 107 93 58 q 125 198 93 161 q 218 235 157 235 m 218 711 q 308 676 276 711 q 339 589 339 642 q 308 498 339 535 q 215 461 276 461 q 125 497 157 461 q 93 583 93 533 q 125 674 93 636 q 218 711 157 711 z "},";":{"ha":429,"x_min":42,"x_max":339,"o":"m 206 711 q 296 676 264 711 q 328 589 328 642 q 296 498 328 535 q 203 461 264 461 q 113 497 144 461 q 82 583 82 533 q 113 674 82 636 q 206 711 144 711 m 99 163 q 108 169 100 164 q 130 180 115 174 q 168 191 144 186 q 224 196 192 196 q 313 158 288 196 q 339 69 339 121 q 288 -102 339 -19 q 122 -243 236 -185 l 42 -133 q 109 -56 92 -97 q 126 24 126 -15 q 114 103 126 67 q 99 163 101 139 z "},"G":{"ha":849,"x_min":49,"x_max":789,"o":"m 433 -165 q 508 -115 478 -140 q 556 -60 538 -90 q 583 8 575 -29 q 592 90 592 44 l 592 100 q 511 19 564 47 q 386 -10 458 -10 q 241 22 304 -10 q 135 115 178 54 q 71 262 93 175 q 49 458 49 349 q 74 656 49 565 q 153 813 100 747 q 287 916 206 879 q 479 953 368 953 q 637 922 561 953 q 763 829 713 890 l 656 699 q 569 764 615 738 q 479 790 524 790 q 338 706 381 790 q 296 472 296 621 q 304 341 296 400 q 330 240 313 282 q 373 176 347 199 q 435 154 399 154 q 487 175 463 154 q 530 228 511 196 q 559 301 549 261 q 569 382 569 342 l 569 486 l 789 486 l 789 43 q 765 -99 789 -42 q 703 -197 742 -157 q 616 -262 665 -236 q 517 -310 567 -289 l 433 -165 z "},"O":{"ha":963,"x_min":51,"x_max":910,"o":"m 490 953 q 679 919 600 953 q 810 825 758 886 q 885 676 861 764 q 910 478 910 588 q 883 280 910 369 q 801 126 856 190 q 665 27 747 63 q 472 -8 583 -8 q 283 23 363 -8 q 151 115 203 54 q 76 261 100 175 q 51 458 51 347 q 78 658 51 567 q 160 815 106 749 q 297 917 214 881 q 490 953 379 953 m 471 790 q 340 706 381 790 q 299 474 299 622 q 308 344 299 403 q 338 244 317 286 q 397 178 360 201 q 492 154 435 154 q 622 235 582 154 q 663 464 663 315 q 653 594 663 535 q 623 698 644 654 q 564 766 601 742 q 471 790 526 790 z "},"C":{"ha":763,"x_min":54,"x_max":746,"o":"m 621 711 q 546 774 582 758 q 474 790 510 790 q 342 706 383 790 q 301 474 301 622 q 310 344 301 403 q 342 243 319 285 q 401 178 364 201 q 493 154 438 154 q 588 166 542 154 q 674 193 635 178 l 724 38 q 615 6 681 19 q 465 -8 550 -8 q 153 113 251 -8 q 54 458 54 235 q 80 657 54 567 q 158 813 106 747 q 288 916 210 879 q 474 953 367 953 q 572 943 529 953 q 646 917 614 933 q 702 881 678 901 q 746 838 726 860 l 621 711 z "},"H":{"ha":956,"x_min":86,"x_max":868,"o":"m 640 403 l 315 403 l 315 0 l 86 0 l 86 940 l 315 940 l 315 572 l 640 572 l 640 940 l 868 940 l 868 0 l 640 0 l 640 403 z "},"I":{"ha":401,"x_min":86,"x_max":315,"o":"m 86 940 l 315 940 l 315 0 l 86 0 l 86 940 z "},"E":{"ha":728,"x_min":86,"x_max":704,"o":"m 86 940 l 685 940 l 685 772 l 315 772 l 315 571 l 622 571 l 596 406 l 315 406 l 315 168 l 704 168 l 704 0 l 86 0 l 86 940 z "},"F":{"ha":696,"x_min":86,"x_max":685,"o":"m 86 940 l 685 940 l 685 774 l 315 774 l 315 558 l 625 558 l 597 393 l 315 393 l 315 0 l 86 0 l 86 940 z "},"L":{"ha":636,"x_min":86,"x_max":646,"o":"m 86 940 l 315 940 l 315 168 l 646 168 l 646 0 l 86 0 l 86 940 z "},"K":{"ha":886,"x_min":86,"x_max":906,"o":"m 86 940 l 315 940 l 315 0 l 86 0 l 86 940 m 819 940 q 774 771 800 842 q 718 648 749 700 q 653 560 688 596 q 581 494 618 524 l 906 0 l 650 0 l 331 515 l 331 532 q 434 601 392 561 q 506 691 476 640 q 555 803 535 742 q 592 940 575 865 l 819 940 z "},"J":{"ha":396,"x_min":-60,"x_max":308,"o":"m 308 60 q 288 -75 308 -18 q 229 -175 267 -132 q 142 -250 192 -218 q 33 -310 92 -282 l -60 -156 q 22 -101 -7 -128 q 63 -47 50 -74 q 78 6 76 -19 q 81 57 81 32 l 81 940 l 308 940 l 308 60 z "},"D":{"ha":899,"x_min":86,"x_max":849,"o":"m 86 940 q 131 941 96 940 q 213 942 167 942 q 308 942 258 942 q 396 943 357 943 q 599 908 514 943 q 740 808 685 872 q 822 656 796 744 q 849 463 849 568 q 822 268 849 354 q 738 122 794 182 q 596 29 682 61 q 392 -3 510 -3 q 318 -2 351 -3 q 250 -1 285 -1 q 176 -1 215 -1 q 86 0 138 0 l 86 940 m 386 782 q 350 781 363 782 q 315 781 338 781 l 315 160 q 347 158 333 158 q 386 158 361 158 q 488 179 447 158 q 554 239 529 200 q 590 334 579 278 q 601 460 601 390 q 386 782 601 782 z "},"Q":{"ha":978,"x_min":49,"x_max":967,"o":"m 967 -204 q 832 -273 900 -249 q 678 -297 764 -297 q 583 -287 633 -297 q 480 -257 533 -278 q 372 -204 426 -236 q 267 -126 318 -172 l 307 -3 q 340 -7 322 -6 q 374 -8 358 -8 q 496 24 442 -8 q 588 116 550 56 q 647 263 626 176 q 668 461 668 350 q 659 592 668 532 q 627 697 650 653 q 567 765 604 740 q 472 790 529 790 q 339 706 382 790 q 296 478 296 622 q 303 367 296 413 q 324 292 310 322 q 360 244 339 261 q 413 215 382 226 l 390 65 q 239 105 303 71 q 133 194 175 139 q 69 319 90 249 q 49 465 49 389 q 78 660 49 571 q 165 814 108 749 q 303 916 221 879 q 492 953 386 953 q 675 919 596 953 q 808 824 754 886 q 890 674 863 763 q 917 476 917 586 q 891 260 917 357 q 819 90 865 164 q 711 -33 774 17 q 575 -107 649 -82 q 660 -126 614 -126 q 777 -103 722 -126 q 892 -51 832 -81 l 967 -204 z "},"T":{"ha":704,"x_min":3,"x_max":701,"o":"m 701 940 l 672 772 l 456 772 l 456 0 l 226 0 l 226 772 l 3 772 l 3 940 l 701 940 z "},"B":{"ha":797,"x_min":86,"x_max":758,"o":"m 86 940 q 137 941 99 940 q 221 942 175 942 q 310 942 267 942 q 375 943 353 943 q 641 877 551 943 q 731 699 731 811 q 685 574 731 628 q 553 490 640 519 q 708 401 657 460 q 758 263 758 343 q 360 -1 758 -1 q 301 -1 340 -1 q 218 -1 261 -1 q 138 0 175 0 q 86 0 101 0 l 86 940 m 315 150 l 383 150 q 435 156 411 150 q 478 174 460 161 q 506 210 496 188 q 517 268 517 233 q 510 319 517 294 q 486 362 503 343 q 442 392 469 381 q 376 403 415 403 q 341 402 357 403 q 315 400 325 401 l 315 150 m 315 546 l 379 546 q 456 572 422 546 q 490 668 490 599 q 463 759 490 726 q 374 792 436 792 q 340 792 356 792 q 315 790 324 792 l 315 546 z "},"R":{"ha":832,"x_min":86,"x_max":831,"o":"m 86 940 q 136 941 99 940 q 219 942 174 942 q 308 942 265 942 q 375 943 351 943 q 642 875 553 943 q 731 674 731 807 q 688 527 731 585 q 571 438 644 469 q 644 375 613 414 q 706 281 676 336 q 765 156 735 226 q 831 0 794 85 l 585 0 q 510 172 540 97 q 453 297 479 246 q 401 373 426 347 q 339 399 375 399 l 315 399 l 315 0 l 86 0 l 86 940 m 315 542 l 374 542 q 456 572 422 542 q 490 665 490 601 q 484 715 490 692 q 464 755 478 738 q 426 783 450 772 q 367 793 401 793 l 315 793 l 315 542 z "},"P":{"ha":756,"x_min":86,"x_max":731,"o":"m 86 940 q 133 941 96 940 q 214 942 169 942 q 303 942 258 942 q 375 943 347 943 q 642 867 553 943 q 731 657 731 792 q 631 434 731 508 q 357 360 531 360 l 315 360 l 315 0 l 86 0 l 86 940 m 315 511 l 374 511 q 456 544 421 511 q 490 646 490 576 q 462 747 490 704 q 367 792 433 790 q 336 791 349 792 q 315 789 324 790 l 315 511 z "},"U":{"ha":928,"x_min":72,"x_max":856,"o":"m 300 940 l 300 381 q 313 279 300 319 q 349 214 326 239 q 404 178 372 189 q 472 168 436 168 q 587 222 547 168 q 626 381 626 275 l 626 940 l 856 940 l 856 368 q 835 225 856 293 q 766 105 814 157 q 642 22 718 53 q 454 -8 565 -8 q 274 23 347 -8 q 157 106 201 54 q 92 226 113 158 q 72 368 72 294 l 72 940 l 300 940 z "},"A":{"ha":901,"x_min":-1,"x_max":904,"o":"m 356 940 l 560 940 l 904 0 l 672 0 l 603 226 l 299 226 l 226 0 l -1 0 l 356 940 m 551 396 q 523 480 538 436 q 495 565 508 524 q 471 644 482 607 q 451 706 460 681 q 432 642 443 679 q 408 564 421 606 q 380 479 394 522 q 351 396 365 436 l 551 396 z "},"V":{"ha":892,"x_min":-3,"x_max":894,"o":"m 543 0 l 349 0 l -3 940 l 239 940 l 364 565 q 413 406 392 481 q 447 279 433 332 q 482 404 461 332 q 533 564 503 476 l 661 940 l 894 940 l 543 0 z "},"W":{"ha":1267,"x_min":8,"x_max":1267,"o":"m 686 429 q 669 492 676 460 q 655 553 661 524 q 644 606 649 582 q 635 643 639 629 q 626 603 632 629 q 615 546 621 576 q 601 483 608 515 q 586 425 594 451 l 454 0 l 269 0 l 8 940 l 236 940 l 325 588 q 340 521 333 556 q 354 451 347 486 q 367 383 361 415 q 376 325 372 350 q 403 449 388 376 q 439 586 419 522 l 544 940 l 731 940 l 839 583 q 876 438 863 507 q 900 319 889 369 q 918 438 907 369 q 949 585 929 506 l 1036 940 l 1267 940 l 1006 0 l 821 0 l 686 429 z "},"¨":{"ha":683,"x_min":85,"x_max":588,"o":"m 289 900 q 263 824 289 854 q 185 793 236 793 q 110 823 136 793 q 85 894 85 853 q 110 972 85 940 q 189 1003 136 1003 q 263 972 238 1003 q 289 900 289 942 m 588 900 q 561 824 588 854 q 483 793 535 793 q 409 823 435 793 q 383 894 383 853 q 409 972 383 940 q 488 1003 435 1003 q 562 972 536 1003 q 588 900 588 942 z "},"S":{"ha":731,"x_min":31,"x_max":692,"o":"m 371 953 q 467 944 421 953 q 554 924 514 936 q 627 895 594 911 q 683 863 660 879 l 603 710 q 563 731 586 718 q 512 757 539 744 q 456 778 485 769 q 401 786 428 786 q 329 766 353 786 q 306 715 306 746 q 317 674 307 692 q 346 638 326 656 q 396 604 365 621 q 471 569 426 588 q 568 521 526 546 q 637 464 610 496 q 678 392 664 432 q 692 299 692 351 q 669 178 692 235 q 603 81 646 122 q 499 15 560 39 q 361 -8 438 -8 q 258 1 307 -8 q 167 26 208 11 q 90 59 125 42 q 31 92 56 76 l 106 256 q 142 233 115 249 q 201 201 168 217 q 269 172 235 185 q 332 160 304 160 q 417 187 390 160 q 444 264 444 214 q 410 340 444 314 q 314 390 376 365 q 206 443 253 415 q 126 506 158 471 q 76 583 93 540 q 58 683 58 626 q 84 795 58 746 q 153 880 110 844 q 252 934 196 915 q 371 953 308 953 z "},"Z":{"ha":761,"x_min":46,"x_max":722,"o":"m 50 0 l 50 156 l 431 753 q 376 751 404 751 q 321 750 349 750 l 81 750 l 46 940 l 704 940 l 704 783 l 329 188 q 375 190 351 189 q 424 190 399 190 l 722 190 l 722 0 l 50 0 z "},"Y":{"ha":818,"x_min":0,"x_max":818,"o":"m 290 361 l 0 940 l 242 940 l 408 581 l 579 940 l 818 940 l 518 349 l 518 0 l 290 0 l 290 361 z "},"X":{"ha":882,"x_min":0,"x_max":882,"o":"m 0 0 l 292 493 l 28 940 l 278 940 l 410 703 q 423 677 415 693 q 440 644 431 661 q 458 675 450 660 q 472 701 465 690 l 606 940 l 856 940 l 590 492 l 882 0 l 629 0 l 474 278 q 458 305 467 289 q 440 338 450 321 l 408 278 l 253 0 l 0 0 z "},"M":{"ha":1194,"x_min":72,"x_max":1122,"o":"m 682 0 l 508 0 l 393 267 q 377 308 389 278 q 351 376 365 338 q 321 454 336 414 q 293 528 306 494 q 293 444 293 492 q 293 349 293 397 q 292 257 293 300 q 290 189 292 214 l 283 0 l 72 0 l 128 940 l 325 940 l 542 399 q 567 328 551 374 q 599 231 583 283 q 630 327 614 282 q 657 399 646 372 l 874 940 l 1067 940 l 1122 0 l 907 0 l 899 189 q 897 258 897 215 q 896 349 896 301 q 897 445 896 397 q 897 528 897 493 q 873 462 886 499 q 846 390 860 425 q 819 326 832 356 q 800 279 807 296 l 682 0 z "},"N":{"ha":957,"x_min":86,"x_max":871,"o":"m 642 940 l 871 940 l 871 0 l 675 0 l 407 406 q 384 442 399 418 q 353 491 369 465 q 323 541 338 517 q 299 581 308 565 q 302 530 300 560 q 306 469 304 500 q 310 410 308 439 q 311 361 311 381 l 315 0 l 86 0 l 86 940 l 274 940 l 544 538 q 572 494 557 518 q 603 444 588 469 q 633 397 619 419 q 657 357 647 374 q 654 408 656 379 q 651 469 653 438 q 647 529 649 500 q 646 581 646 558 l 642 940 z "},"ß":{"ha":865,"x_min":-28,"x_max":835,"o":"m 331 35 q 307 -101 331 -46 q 244 -197 283 -157 q 153 -262 204 -236 q 46 -311 101 -289 l -28 -194 q 80 -101 49 -154 q 111 19 111 -47 l 111 686 q 138 817 111 756 q 213 925 164 879 q 334 998 263 971 q 497 1025 406 1025 q 626 1006 572 1025 q 713 956 679 986 q 761 888 746 926 q 776 813 776 850 q 751 718 776 753 q 697 659 726 683 q 642 615 667 635 q 617 564 617 594 q 633 519 617 538 q 673 483 649 500 q 726 446 697 465 q 778 398 754 426 q 819 329 803 369 q 835 229 835 289 q 817 137 835 181 q 764 60 799 93 q 679 9 729 28 q 565 -10 629 -10 q 486 -2 522 -10 q 424 15 450 6 q 384 33 399 25 q 368 42 369 42 l 435 189 q 475 172 450 182 q 524 163 500 163 q 604 233 604 163 q 589 283 604 263 q 551 320 574 303 q 501 355 528 338 q 452 395 475 372 q 414 449 429 418 q 399 525 399 479 q 422 605 399 572 q 474 664 446 638 q 525 716 501 690 q 549 778 549 742 q 521 833 549 815 q 453 851 493 851 q 360 803 390 851 q 331 675 331 754 l 331 35 z "},"–":{"ha":694,"x_min":0,"x_max":694,"o":"m 0 517 l 694 517 l 694 363 l 0 363 l 0 517 z "},"­":{"ha":521,"x_min":58,"x_max":463,"o":"m 58 517 l 463 517 l 463 363 l 58 363 l 58 517 z "},"—":{"ha":969,"x_min":0,"x_max":969,"o":"m 0 517 l 969 517 l 969 363 l 0 363 l 0 517 z "},"-":{"ha":521,"x_min":58,"x_max":463,"o":"m 58 517 l 463 517 l 463 363 l 58 363 l 58 517 z "},"æ":{"ha":1058,"x_min":38,"x_max":1031,"o":"m 386 707 q 504 692 451 707 q 597 661 557 678 q 788 711 678 711 q 899 695 853 711 q 974 651 944 679 q 1017 584 1003 622 q 1031 501 1031 546 q 1006 407 1031 451 q 934 328 981 363 q 822 272 888 294 q 672 243 756 250 q 708 176 682 201 q 785 150 733 150 q 850 157 815 150 q 914 172 885 164 q 982 194 949 182 l 1024 50 q 943 18 988 32 q 856 -3 906 7 q 750 -12 806 -12 q 588 20 651 -12 q 486 111 524 53 q 417 23 461 54 q 306 -8 374 -8 q 187 17 238 -8 q 103 87 136 42 q 53 196 69 132 q 38 338 38 260 q 63 485 38 417 q 135 602 89 553 q 244 679 181 651 q 386 707 308 707 m 342 153 q 399 192 374 153 q 436 294 425 232 q 434 322 435 307 q 433 349 433 338 q 444 437 433 389 q 474 521 454 485 q 431 539 453 532 q 386 546 410 546 q 331 531 353 546 q 295 491 308 517 q 276 429 282 465 q 271 351 271 393 q 272 277 271 313 q 281 214 274 242 q 303 169 289 186 q 342 153 317 153 m 760 554 q 715 539 733 554 q 685 499 696 524 q 668 443 674 474 q 661 383 663 413 q 731 396 701 385 q 778 424 760 407 q 804 460 796 440 q 813 496 813 479 q 797 538 813 522 q 760 554 782 554 z "},"œ":{"ha":1085,"x_min":38,"x_max":1053,"o":"m 367 711 q 495 689 442 711 q 585 628 549 667 q 810 711 675 711 q 921 695 875 711 q 996 651 967 679 q 1039 584 1025 622 q 1053 501 1053 546 q 1028 407 1053 451 q 956 328 1003 363 q 844 272 910 294 q 694 243 778 250 q 730 176 704 201 q 808 150 756 150 q 874 157 839 150 q 938 172 908 164 q 1006 194 972 182 l 1047 50 q 965 18 1010 32 q 878 -3 928 7 q 774 -12 829 -12 q 649 7 701 -12 q 561 61 597 26 q 473 6 524 26 q 356 -14 422 -14 q 212 10 272 -14 q 113 81 151 35 q 56 192 75 126 q 38 340 38 258 q 58 488 38 419 q 119 605 78 556 q 222 683 160 654 q 367 711 283 711 m 354 546 q 313 531 329 546 q 287 491 296 517 q 274 431 278 465 q 271 356 271 396 q 275 276 271 314 q 290 211 279 239 q 319 167 300 183 q 368 151 339 151 q 410 167 393 151 q 435 208 426 182 q 448 268 444 233 q 451 342 451 303 q 447 422 451 385 q 433 486 443 458 q 403 530 422 514 q 354 546 383 546 m 782 554 q 737 539 756 554 q 707 499 718 524 q 690 443 696 474 q 683 383 685 413 q 753 396 725 385 q 800 424 782 407 q 826 460 818 440 q 835 496 835 479 q 820 538 835 522 q 782 554 806 554 z "},"Œ":{"ha":1226,"x_min":51,"x_max":1203,"o":"m 615 0 q 544 -7 581 -6 q 467 -8 507 -8 q 278 23 357 -8 q 149 115 200 54 q 75 261 99 175 q 51 458 51 347 q 77 657 51 567 q 155 813 103 747 q 285 916 207 879 q 471 953 364 953 q 594 940 544 953 l 1183 940 l 1183 772 l 814 772 l 814 571 l 1122 571 l 1094 406 l 814 406 l 814 168 l 1203 168 l 1203 0 l 615 0 m 492 154 q 538 156 514 154 q 586 160 561 157 l 586 767 q 471 790 531 790 q 340 706 381 790 q 299 474 299 622 q 308 344 299 403 q 338 244 317 286 q 397 178 360 201 q 492 154 435 154 z "},"Æ":{"ha":1279,"x_min":-18,"x_max":1256,"o":"m 639 226 l 369 226 l 240 0 l -18 0 l 549 940 l 1236 940 l 1236 772 l 867 772 l 867 571 l 1174 571 l 1147 406 l 867 406 l 867 168 l 1256 168 l 1256 0 l 639 0 l 639 226 m 464 396 l 639 396 l 639 731 l 464 396 z "},"ª":{"ha":581,"x_min":38,"x_max":550,"o":"m 492 699 q 499 609 492 646 q 517 548 507 572 q 536 511 526 524 q 550 494 546 499 l 410 451 q 383 480 403 457 q 354 544 364 503 q 308 479 339 504 q 228 454 276 454 q 87 522 136 454 q 38 701 38 590 q 56 805 38 757 q 108 888 74 853 q 191 943 142 924 q 303 963 240 963 q 358 960 331 963 q 411 953 386 957 q 457 944 436 949 q 492 936 478 940 l 492 699 m 263 590 q 283 602 274 590 q 301 634 293 614 q 313 681 308 654 q 317 735 317 707 l 317 824 q 303 828 310 826 q 290 829 297 829 q 241 794 254 829 q 228 710 228 758 q 233 627 228 664 q 263 590 239 590 z "},"²":{"ha":449,"x_min":38,"x_max":414,"o":"m 38 908 q 125 945 72 928 q 239 963 178 963 q 356 927 310 963 q 401 821 401 892 q 379 728 401 772 q 313 635 357 683 q 265 588 296 615 l 414 588 l 414 456 l 43 456 l 43 571 q 78 601 61 586 q 109 631 93 615 q 139 663 125 647 q 203 740 183 711 q 224 793 224 769 q 197 828 224 828 q 150 817 175 828 q 97 792 125 807 l 38 908 z "},"³":{"ha":463,"x_min":40,"x_max":421,"o":"m 239 963 q 355 933 310 963 q 400 843 400 904 q 376 776 400 800 q 322 736 351 751 q 393 692 365 722 q 421 614 421 663 q 410 552 421 582 q 377 499 400 522 q 316 460 354 475 q 222 446 278 446 q 134 460 182 446 q 46 499 86 475 l 92 611 q 131 592 111 600 q 168 579 147 585 q 210 574 189 574 q 257 618 257 574 q 248 646 257 635 q 222 657 239 657 q 201 656 211 657 q 182 653 190 654 q 163 649 172 650 l 121 750 q 156 758 138 754 q 189 769 174 763 q 214 783 204 775 q 224 806 224 792 q 201 828 224 828 q 159 821 183 828 q 99 794 135 814 l 40 913 q 128 947 75 932 q 239 963 181 963 z "},"¹":{"ha":396,"x_min":3,"x_max":340,"o":"m 340 950 l 340 456 l 169 456 l 169 786 q 122 751 147 767 q 68 725 97 735 l 3 846 q 45 862 19 851 q 98 885 71 872 q 152 915 125 899 q 199 950 179 932 l 340 950 z "},"º":{"ha":596,"x_min":51,"x_max":543,"o":"m 303 963 q 488 897 432 963 q 543 714 543 831 q 528 611 543 658 q 483 529 514 564 q 406 474 453 494 q 294 454 358 454 q 108 520 164 454 q 51 703 51 586 q 67 806 51 758 q 113 889 82 854 q 190 943 143 924 q 303 963 238 963 m 293 844 q 253 807 264 844 q 243 714 243 769 q 246 659 243 685 q 256 614 249 633 q 274 583 263 594 q 303 572 286 572 q 342 611 331 572 q 353 706 353 650 q 340 804 353 764 q 293 844 328 844 z "},"¼":{"ha":1079,"x_min":1,"x_max":1063,"o":"m 625 825 l 810 825 l 418 -11 l 235 -11 l 625 825 m 339 825 l 339 331 l 168 331 l 168 661 q 65 600 122 618 l 1 721 q 43 737 18 726 q 96 760 68 747 q 151 790 124 774 q 197 825 178 807 l 339 825 m 990 217 l 1063 217 l 1049 97 l 990 97 l 990 0 l 842 0 l 842 97 l 614 97 l 614 185 l 724 497 l 875 497 l 775 217 l 842 217 l 842 344 l 990 372 l 990 217 z "},"/":{"ha":621,"x_min":-25,"x_max":646,"o":"m 417 1013 l 646 1013 l 204 -175 l -25 -175 l 417 1013 z "},"½":{"ha":1103,"x_min":1,"x_max":1068,"o":"m 625 825 l 810 825 l 418 -11 l 235 -11 l 625 825 m 339 825 l 339 331 l 168 331 l 168 661 q 65 600 122 618 l 1 721 q 43 737 18 726 q 96 760 68 747 q 151 790 124 774 q 197 825 178 807 l 339 825 m 693 453 q 780 490 726 472 q 893 507 833 507 q 1010 472 964 507 q 1057 365 1057 436 q 1035 272 1057 317 q 968 179 1013 226 q 947 158 960 169 q 919 132 935 146 l 1068 132 l 1068 0 l 697 0 l 697 114 q 732 144 715 129 q 764 174 747 158 q 794 206 781 190 q 858 283 839 254 q 878 336 878 313 q 851 371 878 371 q 804 360 829 371 q 751 335 779 350 l 693 453 z "},"¾":{"ha":1133,"x_min":31,"x_max":1110,"o":"m 669 825 l 853 825 l 463 -11 l 278 -11 l 669 825 m 1036 213 l 1110 213 l 1096 94 l 1036 94 l 1036 0 l 888 0 l 888 94 l 661 94 l 661 181 l 769 494 l 921 494 l 821 213 l 888 213 l 888 340 l 1036 368 l 1036 213 m 229 825 q 345 796 300 825 q 390 706 390 767 q 366 638 390 663 q 313 599 342 614 q 383 555 356 585 q 411 476 411 525 q 401 415 411 444 q 367 361 390 385 q 306 323 344 338 q 213 308 268 308 q 124 323 172 308 q 36 361 76 338 l 82 474 q 121 454 101 463 q 158 442 138 447 q 200 436 179 436 q 247 481 247 436 q 238 508 247 497 q 213 519 229 519 q 191 518 201 519 q 172 515 181 517 q 153 511 163 513 l 111 613 q 146 621 128 617 q 179 631 164 625 q 204 646 194 638 q 214 668 214 654 q 192 690 214 690 q 149 683 174 690 q 89 657 125 676 l 31 775 q 118 810 65 794 q 229 825 171 825 z "},"\\":{"ha":621,"x_min":-25,"x_max":646,"o":"m 646 -175 l 417 -175 l -25 1013 l 204 1013 l 646 -175 z "},"%":{"ha":1311,"x_min":44,"x_max":1267,"o":"m 292 826 q 472 758 413 826 q 531 578 531 689 q 515 476 531 524 q 467 394 499 429 q 390 338 436 358 q 283 318 343 318 q 104 387 164 318 q 44 567 44 456 q 61 668 44 621 q 109 751 78 715 q 186 806 140 786 q 292 826 232 826 m 283 711 q 245 676 254 711 q 236 578 236 640 q 247 473 236 513 q 292 433 257 433 q 330 470 321 433 q 339 569 339 507 q 329 673 339 635 q 283 711 319 711 m 760 825 l 944 825 l 553 -11 l 369 -11 l 760 825 m 1028 497 q 1208 428 1149 497 q 1267 249 1267 360 q 1251 147 1267 194 q 1203 65 1235 100 q 1126 9 1172 29 q 1019 -11 1079 -11 q 840 58 900 -11 q 781 238 781 126 q 797 339 781 292 q 845 422 814 386 q 922 477 876 457 q 1028 497 968 497 m 1019 382 q 981 347 990 382 q 972 249 972 311 q 982 144 972 183 q 1028 104 992 104 q 1067 141 1058 104 q 1075 240 1075 178 q 1065 344 1075 306 q 1019 382 1056 382 z "},"ø":{"ha":722,"x_min":38,"x_max":683,"o":"m 367 711 q 450 703 410 711 l 493 792 l 631 728 l 586 638 q 660 521 636 592 q 683 356 683 450 q 663 209 683 276 q 602 92 643 142 q 499 15 561 43 q 356 -14 438 -14 q 272 -6 310 -14 l 229 -94 l 92 -29 l 135 58 q 61 176 85 104 q 38 340 38 247 q 58 488 38 419 q 119 605 78 556 q 222 683 160 654 q 367 711 283 711 m 354 546 q 313 531 329 546 q 287 491 296 517 q 274 431 278 465 q 271 356 271 396 l 271 338 l 372 544 q 363 546 368 546 q 354 546 358 546 m 368 151 q 410 167 393 151 q 435 208 426 182 q 448 268 444 233 q 451 342 451 303 l 451 360 l 350 153 q 368 151 356 151 z "},"@":{"ha":1329,"x_min":61,"x_max":1269,"o":"m 931 301 q 946 186 931 222 q 993 150 961 150 q 1038 172 1018 150 q 1073 229 1058 194 q 1096 306 1088 264 q 1104 386 1104 347 q 1076 552 1104 481 q 996 672 1047 624 q 873 743 944 719 q 717 767 801 767 q 526 737 615 767 q 371 647 438 707 q 265 495 304 586 q 226 282 226 404 q 245 131 226 203 q 308 5 264 60 q 423 -82 351 -50 q 599 -114 494 -114 q 683 -107 640 -114 q 765 -92 726 -100 q 831 -74 803 -83 q 869 -61 858 -65 l 921 -196 q 879 -214 911 -201 q 801 -239 847 -226 q 700 -261 756 -251 q 589 -271 644 -271 q 397 -244 492 -271 q 228 -155 303 -218 q 107 13 153 -92 q 61 276 61 118 q 115 554 61 433 q 259 757 168 675 q 472 881 350 839 q 732 924 594 924 q 942 889 844 924 q 1113 787 1040 854 q 1228 621 1186 719 q 1269 394 1269 522 q 1248 239 1269 313 q 1188 110 1226 165 q 1099 24 1150 56 q 990 -8 1049 -8 q 865 23 921 -8 q 779 132 808 54 q 709 26 753 60 q 594 -8 665 -8 q 483 15 531 -8 q 406 80 436 38 q 360 181 375 122 q 344 314 344 240 q 368 453 344 389 q 435 563 392 517 q 538 634 478 608 q 671 660 597 660 q 756 654 711 660 q 838 642 800 649 q 901 629 875 635 q 931 624 926 624 l 931 301 m 628 143 q 666 160 649 143 q 696 204 683 176 q 716 269 708 232 q 724 347 724 306 l 724 497 q 699 504 715 500 q 668 508 683 508 q 587 458 610 508 q 564 329 564 408 q 566 258 564 292 q 574 199 568 225 q 593 158 581 174 q 628 143 606 143 z "},"©":{"ha":1086,"x_min":51,"x_max":1033,"o":"m 51 472 q 88 670 51 581 q 191 825 125 760 q 348 926 257 890 q 547 963 439 963 q 744 926 656 963 q 898 825 833 890 q 998 670 963 760 q 1033 472 1033 581 q 997 274 1033 364 q 894 118 960 183 q 737 17 828 53 q 538 -19 646 -19 q 340 17 429 -19 q 187 118 251 53 q 87 274 122 183 q 51 472 51 364 m 203 479 q 228 340 203 406 q 298 224 253 274 q 405 146 343 175 q 542 117 467 117 q 679 143 617 117 q 788 216 742 169 q 858 326 833 263 q 883 464 883 390 q 858 603 883 538 q 788 719 833 669 q 681 799 743 769 q 543 828 618 828 q 406 801 468 828 q 298 728 343 775 q 228 617 253 681 q 203 479 203 554 m 632 582 q 611 592 622 586 q 581 597 600 597 q 538 563 549 597 q 526 479 526 529 q 547 385 526 413 q 601 358 567 358 q 649 365 629 358 q 676 375 668 371 l 715 232 q 702 225 714 231 q 669 213 690 219 q 617 202 647 207 q 547 197 586 197 q 369 269 424 197 q 314 463 314 340 q 382 681 314 606 q 563 757 450 757 q 665 738 625 757 q 732 692 704 719 l 632 582 z "},"®":{"ha":811,"x_min":72,"x_max":738,"o":"m 72 631 q 97 764 72 703 q 167 869 122 825 q 274 938 213 913 q 408 963 335 963 q 542 938 481 963 q 646 869 603 914 q 713 764 689 825 q 738 631 738 703 q 713 496 738 557 q 642 391 688 435 q 536 322 597 347 q 403 297 475 297 q 269 322 329 297 q 165 391 208 347 q 97 496 121 435 q 72 631 72 557 m 174 635 q 191 538 174 583 q 238 460 208 493 q 310 407 268 426 q 403 388 353 388 q 497 405 454 388 q 569 453 539 422 q 617 528 600 485 q 635 624 635 571 q 618 720 635 675 q 571 799 601 765 q 497 851 540 832 q 403 871 454 871 q 310 853 353 871 q 238 805 268 836 q 191 730 208 774 q 174 635 174 686 m 394 807 q 497 785 461 807 q 532 710 532 763 q 482 628 532 657 q 501 614 493 624 q 518 588 510 604 q 535 545 526 571 q 558 482 544 519 l 468 450 q 441 517 451 490 q 422 560 431 543 q 403 583 413 576 q 381 590 394 590 l 374 590 l 374 451 l 279 451 l 279 806 q 325 806 290 806 q 394 807 360 807 m 374 744 l 374 654 q 397 657 383 654 q 426 670 418 660 q 435 700 435 681 q 424 732 435 719 q 390 744 414 744 l 374 744 z "},"&":{"ha":838,"x_min":49,"x_max":840,"o":"m 558 614 q 509 655 538 633 q 449 676 481 676 q 408 662 421 676 q 396 622 396 647 q 448 494 396 558 q 589 353 500 431 q 629 442 614 400 l 790 378 q 759 311 775 346 q 721 240 743 276 l 840 138 l 731 -7 l 606 96 q 486 20 553 49 q 332 -8 419 -8 q 217 10 269 -8 q 128 61 165 28 q 69 140 90 94 q 49 239 49 185 q 62 326 49 286 q 97 399 75 367 q 147 457 119 432 q 201 500 174 482 q 168 622 168 563 q 184 707 168 668 q 232 774 200 746 q 311 819 264 803 q 421 836 358 836 q 552 816 490 836 q 671 736 614 796 l 558 614 m 475 203 q 380 285 425 244 q 299 367 335 326 q 274 322 283 347 q 264 263 264 296 q 292 192 264 219 q 374 164 319 164 q 426 174 401 164 q 475 203 451 185 z "},"(":{"ha":535,"x_min":86,"x_max":494,"o":"m 86 374 q 117 614 86 508 q 194 799 149 719 q 291 930 240 878 q 379 1008 342 982 l 494 881 q 432 803 465 850 q 371 694 399 757 q 325 551 343 631 q 307 372 307 471 q 325 192 307 272 q 371 49 343 111 q 431 -60 399 -14 q 494 -137 464 -107 l 379 -265 q 291 -187 342 -239 q 194 -56 240 -135 q 117 131 149 24 q 86 374 86 238 z "},")":{"ha":535,"x_min":50,"x_max":458,"o":"m 458 374 q 427 131 458 238 q 350 -56 396 24 q 253 -187 304 -135 q 165 -265 203 -239 l 50 -137 q 114 -60 81 -107 q 175 49 147 -14 q 221 192 203 111 q 239 372 239 272 q 221 551 239 471 q 174 694 203 631 q 113 803 146 757 q 50 881 79 850 l 165 1008 q 253 930 203 982 q 350 799 304 878 q 427 614 396 719 q 458 374 458 508 z "},"+":{"ha":701,"x_min":72,"x_max":629,"o":"m 72 497 l 265 497 l 265 692 l 435 692 l 435 497 l 629 497 l 629 336 l 435 336 l 435 133 l 265 133 l 265 336 l 72 336 l 72 497 z "},"×":{"ha":726,"x_min":72,"x_max":653,"o":"m 196 697 l 360 533 l 529 701 l 653 576 l 485 408 l 651 242 l 533 125 l 368 290 l 197 121 l 72 246 l 242 415 l 78 581 l 196 697 z "},"=":{"ha":688,"x_min":86,"x_max":601,"o":"m 86 618 l 601 618 l 601 457 l 86 457 l 86 618 m 86 376 l 601 376 l 601 215 l 86 215 l 86 376 z "},"<":{"ha":622,"x_min":31,"x_max":578,"o":"m 504 104 l 31 335 l 31 500 l 501 729 l 575 558 l 365 463 q 331 447 349 454 q 297 434 313 440 q 270 424 282 428 q 254 418 258 419 q 306 399 274 411 q 365 374 338 386 l 578 274 l 504 104 z "},">":{"ha":622,"x_min":44,"x_max":592,"o":"m 44 274 l 257 374 q 315 398 283 385 q 367 418 346 411 q 351 423 363 419 q 325 433 340 426 q 292 447 310 439 q 257 463 274 454 l 47 558 l 121 729 l 592 500 l 592 335 l 118 104 l 44 274 z "},"|":{"ha":471,"x_min":128,"x_max":343,"o":"m 343 1014 l 343 -175 l 128 -175 l 128 1014 l 343 1014 z "},"ı":{"ha":383,"x_min":58,"x_max":372,"o":"m 235 -6 q 107 35 156 -6 q 58 151 58 76 l 58 697 l 278 697 l 278 214 q 288 171 278 182 q 317 160 297 160 q 339 162 328 160 q 353 165 350 164 l 372 28 q 360 22 371 26 q 331 10 349 17 q 288 -1 313 4 q 235 -6 263 -6 z "},"!":{"ha":472,"x_min":107,"x_max":376,"o":"m 232 235 q 322 200 290 235 q 353 113 353 165 q 322 23 353 60 q 229 -14 290 -14 q 139 22 171 -14 q 107 107 107 58 q 139 198 107 161 q 232 235 171 235 m 135 940 l 376 940 l 336 306 l 135 306 l 135 940 z "},"¡":{"ha":457,"x_min":32,"x_max":301,"o":"m 157 453 q 64 490 96 453 q 32 581 32 526 q 64 665 32 629 q 154 701 96 701 q 247 665 215 701 q 278 575 278 628 q 247 488 278 522 q 157 453 215 453 m 60 382 l 261 382 l 301 -253 l 60 -253 l 60 382 z "},"?":{"ha":626,"x_min":40,"x_max":586,"o":"m 322 954 q 515 902 444 954 q 586 747 586 850 q 572 668 586 707 q 537 593 558 629 q 488 522 515 557 q 436 457 461 488 q 369 367 397 408 q 324 275 342 326 l 153 321 q 182 448 153 390 q 247 555 211 506 q 311 647 282 604 q 340 726 340 689 q 322 776 340 753 q 268 799 303 799 q 234 796 250 799 q 201 787 218 793 q 161 770 183 781 q 108 746 139 760 l 40 885 q 165 933 100 913 q 322 954 231 954 m 242 235 q 331 200 300 235 q 363 113 363 165 q 331 23 363 60 q 239 -14 300 -14 q 149 22 181 -14 q 118 107 118 58 q 149 198 118 161 q 242 235 181 235 z "},"¿":{"ha":617,"x_min":56,"x_max":601,"o":"m 319 -267 q 126 -215 197 -267 q 56 -60 56 -162 q 69 19 56 -19 q 105 94 83 58 q 153 165 126 131 q 206 231 181 199 q 272 320 244 279 q 318 413 300 361 l 489 367 q 460 240 489 297 q 395 133 431 182 q 331 41 360 83 q 301 -39 301 -1 q 320 -88 301 -65 q 374 -111 339 -111 q 408 -108 392 -111 q 441 -99 424 -106 q 481 -83 458 -93 q 533 -58 503 -72 l 601 -197 q 476 -246 542 -225 q 319 -267 411 -267 m 400 453 q 310 488 342 453 q 279 575 279 522 q 310 665 279 628 q 403 701 342 701 q 492 665 461 701 q 524 581 524 629 q 492 490 524 526 q 400 453 461 453 z "},"¦":{"ha":471,"x_min":128,"x_max":343,"o":"m 128 490 l 128 1014 l 343 1014 l 343 490 l 128 490 m 128 -175 l 128 347 l 343 347 l 343 -175 l 128 -175 z "},"˚":{"ha":683,"x_min":190,"x_max":492,"o":"m 190 1017 q 233 1128 190 1088 q 343 1169 276 1169 q 452 1126 413 1169 q 492 1017 492 1083 q 449 906 492 947 q 339 864 406 864 q 230 908 269 864 q 190 1017 190 951 m 293 1018 q 307 973 293 988 q 340 958 321 958 q 389 1017 389 958 q 376 1058 389 1043 q 340 1074 364 1074 q 293 1018 293 1074 z "},"Ø":{"ha":963,"x_min":51,"x_max":910,"o":"m 490 953 q 537 951 514 953 q 582 946 560 949 l 622 1036 l 817 958 l 774 863 q 877 703 844 800 q 910 478 910 606 q 883 280 910 369 q 801 126 856 190 q 665 27 747 63 q 472 -8 583 -8 q 426 -7 449 -8 q 383 -3 404 -6 l 342 -97 l 149 -18 l 190 76 q 85 231 118 135 q 51 458 51 328 q 78 658 51 567 q 160 815 106 749 q 297 917 214 881 q 490 953 379 953 m 471 790 q 340 706 381 790 q 299 474 299 622 q 301 402 299 436 q 308 338 303 368 l 510 786 q 471 790 490 790 m 663 464 q 660 533 663 500 q 653 594 658 565 l 456 157 q 473 154 464 154 q 492 154 482 154 q 622 235 582 154 q 663 464 663 315 z "},"\"":{"ha":569,"x_min":58,"x_max":511,"o":"m 243 940 l 228 583 l 74 583 l 58 940 l 243 940 m 511 940 l 496 583 l 342 583 l 326 940 l 511 940 z "},"'":{"ha":324,"x_min":69,"x_max":254,"o":"m 254 940 l 239 583 l 85 583 l 69 940 l 254 940 z "},"*":{"ha":663,"x_min":58,"x_max":604,"o":"m 424 940 l 406 792 l 544 856 l 604 682 l 451 649 l 557 535 l 406 425 l 331 556 l 257 425 l 106 535 l 211 649 l 58 682 l 118 856 l 256 792 l 239 940 l 424 940 z "},"#":{"ha":838,"x_min":44,"x_max":779,"o":"m 674 824 l 651 656 l 779 656 l 761 514 l 633 514 l 610 329 l 747 329 l 729 188 l 592 188 l 568 0 l 425 0 l 450 188 l 310 188 l 286 0 l 143 0 l 168 188 l 44 188 l 63 329 l 186 329 l 210 514 l 76 514 l 94 656 l 228 656 l 249 824 l 392 824 l 369 656 l 510 656 l 531 824 l 674 824 m 328 329 l 468 329 l 492 514 l 351 514 l 328 329 z "},"$":{"ha":776,"x_min":58,"x_max":703,"o":"m 296 22 q 156 62 217 35 q 58 113 96 89 l 133 275 q 173 251 146 267 q 233 219 200 235 q 301 192 265 204 q 365 181 336 181 q 442 203 418 181 q 465 257 465 225 q 432 317 465 297 q 336 360 399 336 q 154 467 217 404 q 92 633 92 531 q 107 710 92 675 q 150 773 122 744 q 215 821 178 801 q 296 850 251 840 l 296 964 l 472 964 l 472 853 q 605 818 546 842 q 700 771 664 794 l 622 621 q 578 644 603 631 q 526 668 554 657 q 469 687 499 679 q 413 694 440 694 q 351 681 372 694 q 329 640 329 668 q 367 583 329 607 q 492 525 404 558 q 652 422 601 482 q 703 268 703 363 q 688 186 703 226 q 643 113 672 146 q 571 55 614 79 q 472 21 528 31 l 472 -115 l 296 -115 l 296 22 z "},"£":{"ha":796,"x_min":75,"x_max":736,"o":"m 175 496 l 182 596 q 210 715 188 661 q 272 809 232 769 q 368 871 311 849 q 500 893 425 893 q 584 885 546 893 q 652 865 622 876 q 703 839 682 853 q 736 814 724 825 l 651 667 q 634 680 646 671 q 604 698 622 689 q 563 714 586 707 q 510 721 539 721 q 440 686 464 721 q 411 606 417 651 l 400 496 l 624 496 l 594 328 l 382 328 l 381 303 q 365 228 375 261 q 340 171 354 196 q 363 173 351 172 q 385 174 374 174 q 463 169 425 174 q 542 165 501 165 q 619 177 585 165 q 667 197 653 189 l 732 43 q 709 32 726 40 q 666 15 692 24 q 608 -1 640 6 q 543 -8 576 -8 q 428 0 481 -8 q 329 8 376 8 q 194 3 247 8 q 129 -3 140 -1 l 75 129 q 92 140 79 131 q 118 165 104 149 q 143 208 132 182 q 157 271 154 233 l 161 328 l 81 328 l 81 496 l 175 496 z "},"¤":{"ha":863,"x_min":31,"x_max":832,"o":"m 111 393 q 165 581 111 499 l 32 699 l 163 831 l 292 685 q 432 714 354 714 q 572 686 508 714 l 700 831 l 831 699 l 697 581 q 738 494 724 542 q 753 393 753 447 q 738 292 753 339 q 697 206 724 246 l 832 89 l 700 -43 l 571 101 q 503 80 539 88 q 429 72 468 72 q 357 80 392 72 q 292 101 322 88 l 163 -43 l 31 89 l 167 207 q 111 393 111 288 m 272 400 q 284 331 272 363 q 317 275 296 299 q 367 238 338 251 q 431 224 396 224 q 495 236 465 224 q 547 272 525 249 q 580 325 568 294 q 592 392 592 356 q 580 460 592 428 q 547 515 568 492 q 495 553 525 539 q 431 567 465 567 q 317 520 361 567 q 272 400 272 474 z "},"¥":{"ha":876,"x_min":31,"x_max":846,"o":"m 260 489 l 31 894 l 274 894 l 438 557 l 606 894 l 846 894 l 615 489 l 731 489 l 731 326 l 547 326 l 547 269 l 731 269 l 731 106 l 547 106 l 547 0 l 319 0 l 319 106 l 138 106 l 138 269 l 319 269 l 319 326 l 138 326 l 138 489 l 260 489 z "},"[":{"ha":557,"x_min":100,"x_max":500,"o":"m 500 1000 l 500 854 l 324 854 l 324 -112 l 500 -112 l 500 -258 l 100 -258 l 100 1000 l 500 1000 z "},"]":{"ha":557,"x_min":57,"x_max":457,"o":"m 457 -258 l 57 -258 l 57 -112 l 235 -112 l 235 854 l 57 854 l 57 1000 l 457 1000 l 457 -258 z "},"^":{"ha":782,"x_min":58,"x_max":722,"o":"m 532 397 l 435 608 q 410 667 422 635 q 390 719 397 699 q 371 667 383 699 q 346 608 358 636 l 249 396 l 58 431 l 307 940 l 474 940 l 722 431 l 532 397 z "},"_":{"ha":694,"x_min":0,"x_max":694,"o":"m 0 -72 l 694 -72 l 694 -226 l 0 -226 l 0 -72 z "},"¢":{"ha":703,"x_min":65,"x_max":664,"o":"m 342 -58 l 342 103 q 216 135 268 110 q 131 203 164 161 q 81 303 97 246 q 65 428 65 360 q 85 570 65 507 q 142 678 106 633 q 230 751 179 724 q 342 788 281 778 l 342 908 l 501 908 l 501 786 q 589 756 547 778 q 664 693 631 735 l 564 594 q 501 639 533 626 l 501 247 q 566 259 540 251 q 611 274 592 267 l 658 150 q 601 126 639 139 q 501 107 563 114 l 501 -58 l 342 -58 m 276 451 q 294 328 276 371 q 342 267 311 286 l 342 633 q 294 576 313 618 q 276 451 276 535 z "},"µ":{"ha":779,"x_min":79,"x_max":756,"o":"m 79 697 l 299 697 l 299 251 q 317 181 299 207 q 367 154 335 154 q 431 204 403 154 q 460 342 460 254 l 460 697 l 679 697 l 679 335 q 691 197 679 253 q 717 108 703 142 q 743 60 731 75 q 756 44 756 46 l 581 -11 q 572 -2 579 -10 q 554 21 564 6 q 534 58 544 36 q 515 111 524 81 q 454 20 492 49 q 368 -8 417 -8 q 299 10 332 -8 l 299 -269 l 79 -307 l 79 697 z "},"·":{"ha":364,"x_min":58,"x_max":304,"o":"m 183 556 q 273 521 242 556 q 304 433 304 486 q 273 344 304 381 q 181 307 242 307 q 90 343 122 307 q 58 428 58 379 q 90 519 58 482 q 183 556 122 556 z "},"{":{"ha":558,"x_min":72,"x_max":542,"o":"m 150 818 q 162 888 150 854 q 200 948 174 922 q 269 990 226 974 q 374 1006 313 1006 q 451 1001 410 1006 q 542 983 493 997 l 504 847 q 474 854 493 850 q 438 858 456 858 q 388 840 404 858 q 372 797 372 822 q 381 686 372 735 q 390 583 390 638 q 362 446 390 500 q 267 353 333 392 q 362 260 333 314 q 390 125 390 207 q 381 22 390 71 q 372 -89 372 -26 q 388 -132 372 -114 q 438 -150 404 -150 q 474 -147 456 -150 q 504 -139 493 -143 l 542 -275 q 451 -293 493 -289 q 374 -297 410 -297 q 269 -281 313 -297 q 200 -240 226 -265 q 162 -180 174 -214 q 150 -110 150 -146 q 160 24 150 -35 q 169 144 169 83 q 145 233 169 199 q 72 279 121 268 l 72 428 q 145 474 121 439 q 169 564 169 510 q 160 684 169 625 q 150 818 150 743 z "},"}":{"ha":558,"x_min":17,"x_max":486,"o":"m 408 818 q 399 684 408 743 q 389 564 389 625 q 413 474 389 510 q 486 428 438 439 l 486 279 q 413 233 438 268 q 389 144 389 199 q 399 24 389 83 q 408 -110 408 -35 q 397 -180 408 -146 q 358 -240 385 -214 q 289 -281 332 -265 q 185 -297 246 -297 q 108 -293 150 -297 q 17 -275 65 -289 l 54 -139 q 84 -147 65 -143 q 121 -150 103 -150 q 170 -132 154 -150 q 186 -89 186 -114 q 177 22 186 -26 q 168 125 168 71 q 197 260 168 207 q 292 353 225 314 q 197 446 225 392 q 168 583 168 500 q 177 686 168 638 q 186 797 186 735 q 170 840 186 822 q 121 858 154 858 q 84 854 103 858 q 54 847 65 850 l 17 983 q 108 1001 65 997 q 185 1006 150 1006 q 289 990 246 1006 q 358 948 332 974 q 397 888 385 922 q 408 818 408 854 z "},"§":{"ha":810,"x_min":58,"x_max":729,"o":"m 515 251 q 502 294 515 272 q 467 337 489 315 q 416 381 444 358 q 357 429 388 404 q 299 398 325 418 q 274 342 274 378 q 287 299 274 321 q 322 256 300 278 q 373 210 344 233 q 431 163 401 188 q 489 194 463 174 q 515 251 515 215 m 375 -311 q 253 -296 308 -311 q 163 -265 197 -281 l 229 -112 q 282 -134 249 -122 q 344 -146 315 -146 q 383 -136 368 -146 q 397 -104 397 -126 q 379 -63 397 -85 q 332 -17 361 -42 q 266 34 303 7 q 192 92 229 61 q 95 193 132 140 q 58 319 58 246 q 97 449 58 392 q 225 546 135 506 q 185 610 201 574 q 168 693 168 647 q 185 776 168 738 q 233 842 201 814 q 310 887 264 871 q 414 903 356 903 q 535 888 481 903 q 626 858 589 874 l 560 706 q 506 727 539 715 q 444 739 474 739 q 406 729 421 739 q 392 696 392 719 q 408 658 392 678 q 451 615 424 638 q 513 565 478 592 q 585 510 547 539 q 689 406 649 461 q 729 274 729 350 q 691 143 729 200 q 563 46 653 86 q 603 -18 586 18 q 621 -100 621 -54 q 604 -183 621 -144 q 556 -251 588 -222 q 479 -295 525 -279 q 375 -311 433 -311 z "}," ":{"ha":354,"x_min":0,"x_max":0,"o":""},"•":{"ha":415,"x_min":58,"x_max":356,"o":"m 58 439 q 99 547 58 507 q 207 588 139 588 q 315 547 275 588 q 356 439 356 507 q 315 331 356 371 q 207 290 275 290 q 99 331 139 290 q 58 439 58 371 z "},"−":{"ha":615,"x_min":42,"x_max":547,"o":"m 42 497 l 547 497 l 547 336 l 42 336 l 42 497 z "},"±":{"ha":701,"x_min":72,"x_max":629,"o":"m 74 499 l 267 499 l 267 692 l 436 692 l 436 499 l 629 499 l 629 338 l 436 338 l 436 193 l 629 193 l 629 32 l 72 32 l 72 193 l 267 193 l 267 338 l 74 338 l 74 499 z "},"¬":{"ha":728,"x_min":58,"x_max":669,"o":"m 58 571 l 669 571 l 669 233 l 511 233 l 511 410 l 58 410 l 58 571 z "},"°":{"ha":432,"x_min":44,"x_max":388,"o":"m 44 828 q 94 954 44 907 q 218 1001 143 1001 q 342 952 297 1001 q 388 828 388 903 q 374 757 388 789 q 338 702 361 725 q 283 667 315 679 q 214 654 251 654 q 90 703 135 654 q 44 828 44 753 m 161 829 q 178 778 161 796 q 215 761 194 761 q 257 778 242 761 q 272 828 272 796 q 257 876 272 858 q 215 893 242 893 q 176 877 190 893 q 161 829 161 861 z "},"‘":{"ha":346,"x_min":38,"x_max":335,"o":"m 278 597 q 270 591 278 596 q 248 580 263 586 q 210 569 233 574 q 154 564 186 564 q 63 601 89 564 q 38 690 38 639 q 90 862 38 779 q 256 1003 142 944 l 335 893 q 269 816 286 857 q 251 736 251 775 q 263 657 251 693 q 278 597 275 621 z "},"’":{"ha":351,"x_min":31,"x_max":328,"o":"m 88 969 q 97 976 89 971 q 119 987 104 981 q 157 998 133 993 q 213 1003 181 1003 q 302 965 276 1003 q 328 878 328 928 q 276 705 328 788 q 111 564 225 622 l 31 675 q 98 751 81 711 q 115 831 115 792 q 103 910 115 874 q 88 969 90 946 z "},"‚":{"ha":346,"x_min":31,"x_max":328,"o":"m 88 163 q 97 169 89 164 q 119 180 104 174 q 157 191 133 186 q 213 196 181 196 q 302 158 276 196 q 328 69 328 121 q 276 -102 328 -19 q 111 -243 225 -185 l 31 -133 q 98 -56 81 -97 q 115 24 115 -15 q 103 103 115 67 q 88 163 90 139 z "},"“":{"ha":644,"x_min":38,"x_max":633,"o":"m 278 597 q 270 591 278 596 q 248 580 263 586 q 210 569 233 574 q 154 564 186 564 q 63 601 89 564 q 38 690 38 639 q 90 862 38 779 q 256 1003 142 944 l 335 893 q 269 816 286 857 q 251 736 251 775 q 263 657 251 693 q 278 597 275 621 m 576 597 q 569 591 576 596 q 547 580 561 586 q 508 569 532 574 q 453 564 485 564 q 362 601 388 564 q 336 690 336 639 q 388 862 336 779 q 554 1003 440 944 l 633 893 q 567 816 585 857 q 550 736 550 775 q 562 657 550 693 q 576 597 574 621 z "},"”":{"ha":644,"x_min":31,"x_max":626,"o":"m 88 971 q 97 977 89 972 q 119 988 104 982 q 157 999 133 994 q 213 1004 181 1004 q 302 967 276 1004 q 328 878 328 929 q 276 706 328 789 q 111 565 225 624 l 31 675 q 98 752 81 711 q 115 832 115 793 q 103 911 115 875 q 88 971 90 947 m 386 971 q 395 977 388 972 q 417 988 403 982 q 456 999 432 994 q 511 1004 479 1004 q 601 967 575 1004 q 626 878 626 929 q 575 706 626 789 q 410 565 524 624 l 329 675 q 397 752 379 711 q 414 832 414 793 q 401 911 414 875 q 386 971 389 947 z "},"„":{"ha":644,"x_min":31,"x_max":626,"o":"m 88 163 q 97 169 89 164 q 119 180 104 174 q 157 191 133 186 q 213 196 181 196 q 302 158 276 196 q 328 69 328 121 q 276 -102 328 -19 q 111 -243 225 -185 l 31 -133 q 98 -56 81 -97 q 115 24 115 -15 q 103 103 115 67 q 88 163 90 139 m 386 163 q 395 169 388 164 q 417 180 403 174 q 456 191 432 186 q 511 196 479 196 q 601 158 575 196 q 626 69 626 121 q 575 -102 626 -19 q 410 -243 524 -185 l 329 -133 q 397 -56 379 -97 q 414 24 414 -15 q 401 103 414 67 q 386 163 389 139 z "},"÷":{"ha":701,"x_min":72,"x_max":628,"o":"m 442 647 q 417 576 442 604 q 343 547 392 547 q 274 575 299 547 q 250 643 250 603 q 275 715 250 686 q 349 743 300 743 q 417 717 393 743 q 442 647 442 690 m 72 497 l 628 497 l 628 336 l 72 336 l 72 497 m 442 189 q 417 118 442 147 q 343 89 392 89 q 274 117 299 89 q 250 185 250 146 q 275 257 250 228 q 349 286 300 286 q 417 259 393 286 q 442 189 442 232 z "},"«":{"ha":840,"x_min":58,"x_max":803,"o":"m 378 10 q 261 117 318 61 q 157 223 213 164 q 58 340 101 282 q 157 457 101 399 q 261 563 213 515 q 378 669 318 618 l 469 567 l 289 340 l 469 114 l 378 10 m 713 10 q 594 117 651 61 q 490 223 546 164 q 393 340 435 282 q 490 457 435 399 q 594 563 546 515 q 713 669 651 618 l 803 567 l 622 340 l 803 114 l 713 10 z "},"»":{"ha":840,"x_min":38,"x_max":782,"o":"m 463 669 q 579 563 522 618 q 683 457 628 515 q 782 340 739 399 q 683 223 739 282 q 579 117 628 164 q 463 10 522 61 l 372 114 l 553 340 l 372 567 l 463 669 m 129 669 q 246 563 189 618 q 350 457 294 515 q 449 340 406 399 q 350 223 406 282 q 246 117 294 164 q 129 10 189 61 l 38 114 l 218 340 l 38 567 l 129 669 z "},"‹":{"ha":507,"x_min":58,"x_max":469,"o":"m 469 567 l 289 340 l 469 114 l 378 10 q 261 117 318 61 q 157 223 213 164 q 58 340 101 282 q 157 457 101 399 q 261 563 213 515 q 378 669 318 618 l 469 567 z "},"›":{"ha":507,"x_min":38,"x_max":449,"o":"m 129 669 q 246 563 189 618 q 350 457 294 515 q 449 340 406 399 q 350 223 406 282 q 246 117 294 164 q 129 10 189 61 l 38 114 l 218 340 l 38 567 l 129 669 z "},"þ":{"ha":742,"x_min":79,"x_max":704,"o":"m 299 635 q 453 707 354 707 q 562 682 515 707 q 640 612 608 657 q 688 503 672 567 q 704 360 704 439 q 679 215 704 282 q 609 98 654 147 q 503 20 564 49 q 371 -8 442 -8 q 299 0 332 -8 l 299 -269 l 79 -307 l 79 969 l 299 1007 l 299 635 m 400 544 q 360 529 379 544 q 328 487 342 514 q 307 424 315 460 q 299 350 299 389 l 299 163 q 324 156 307 160 q 356 153 342 153 q 411 167 389 153 q 447 208 433 182 q 465 269 460 233 q 471 346 471 304 q 469 421 471 385 q 460 484 468 457 q 439 528 453 511 q 400 544 425 544 z "},"Ð":{"ha":899,"x_min":-11,"x_max":849,"o":"m 86 401 l -11 401 l -11 565 l 86 565 l 86 940 q 131 941 96 940 q 213 942 167 942 q 308 942 258 942 q 396 943 357 943 q 599 908 514 943 q 740 808 685 872 q 822 656 796 744 q 849 463 849 568 q 822 268 849 354 q 738 122 794 182 q 596 29 682 61 q 392 -3 510 -3 q 318 -2 351 -3 q 250 -1 285 -1 q 176 -1 215 -1 q 86 0 138 0 l 86 401 m 386 782 q 350 781 363 782 q 315 781 338 781 l 315 565 l 471 565 l 471 401 l 315 401 l 315 160 q 347 158 333 158 q 386 158 361 158 q 488 179 447 158 q 554 239 529 200 q 590 334 579 278 q 601 460 601 390 q 386 782 601 782 z "},"¶":{"ha":822,"x_min":72,"x_max":736,"o":"m 403 347 q 156 428 239 347 q 72 646 72 510 q 157 864 72 785 q 403 943 242 943 l 403 347 m 736 60 q 715 -75 736 -18 q 656 -175 693 -132 q 569 -250 619 -218 q 460 -310 518 -282 l 368 -156 q 448 -101 419 -128 q 490 -47 476 -74 q 505 6 503 -19 q 507 57 507 32 l 507 940 l 736 940 l 736 60 z "},"Þ":{"ha":756,"x_min":86,"x_max":732,"o":"m 86 940 l 315 940 l 315 776 l 375 776 q 642 701 553 776 q 732 490 732 626 q 706 361 732 417 q 632 268 681 306 q 514 212 583 231 q 357 193 444 193 l 315 193 l 315 0 l 86 0 l 86 940 m 315 351 l 374 351 q 453 385 421 351 q 485 479 485 418 q 478 528 485 504 q 458 572 472 553 q 422 605 444 592 q 367 618 400 618 q 336 617 349 618 q 315 615 324 617 l 315 351 z "},"˜":{"ha":683,"x_min":103,"x_max":558,"o":"m 103 953 q 139 968 119 961 q 177 980 156 975 q 225 985 199 985 q 335 971 279 985 q 447 957 392 957 q 492 960 472 957 q 528 967 513 963 q 558 976 544 971 l 558 838 q 528 821 544 828 q 492 810 513 814 q 447 806 472 806 q 335 819 392 806 q 225 833 279 833 q 177 830 199 833 q 139 824 156 826 q 103 814 119 818 l 103 953 z "},"~":{"ha":753,"x_min":58,"x_max":693,"o":"m 254 564 q 326 551 294 564 q 385 522 357 538 q 439 494 413 507 q 497 481 465 481 q 564 496 540 481 q 618 544 588 511 l 693 460 q 643 393 672 422 q 582 347 618 368 q 497 326 546 326 q 426 340 457 326 q 368 368 396 353 q 313 397 340 383 q 254 410 286 410 q 217 406 233 410 q 188 394 201 403 q 162 374 175 386 q 133 346 149 363 l 58 431 q 108 497 79 468 q 169 543 133 522 q 254 564 206 564 z "},"´":{"ha":683,"x_min":193,"x_max":590,"o":"m 193 872 l 446 1169 l 590 1032 q 493 931 546 978 q 394 849 440 883 q 286 774 340 807 l 193 872 z "},"`":{"ha":683,"x_min":36,"x_max":435,"o":"m 342 774 q 304 799 336 778 q 227 853 272 819 q 131 932 182 886 q 36 1032 79 978 l 181 1169 l 435 872 l 342 774 z "},"ˆ":{"ha":683,"x_min":58,"x_max":599,"o":"m 58 876 l 329 1150 l 599 876 l 514 774 q 438 815 486 788 q 329 888 390 842 q 220 815 268 842 q 143 774 172 789 l 58 876 z "},"¯":{"ha":683,"x_min":101,"x_max":561,"o":"m 101 949 l 561 949 l 561 794 l 101 794 l 101 949 z "},"ʼ":{"ha":300,"x_min":40,"x_max":338,"o":"m 97 972 q 106 978 99 974 q 128 990 114 983 q 167 1001 143 996 q 222 1006 190 1006 q 312 968 286 1006 q 338 879 338 931 q 286 708 338 790 q 121 567 235 625 l 40 676 q 108 753 90 713 q 125 833 125 794 q 113 913 125 876 q 97 972 100 949 z "},"€":{"ha":861,"x_min":54,"x_max":801,"o":"m 146 607 q 280 817 183 739 q 532 896 376 896 q 629 886 588 896 q 702 860 671 876 q 758 824 733 844 q 801 782 782 804 l 678 657 q 604 719 639 704 q 533 735 569 735 q 444 702 481 735 q 389 607 408 669 l 675 607 l 650 444 l 368 444 q 367 433 368 442 q 367 418 367 425 q 371 388 367 404 l 644 388 l 619 225 l 419 225 q 473 172 440 190 q 551 153 506 153 q 595 155 576 153 q 631 161 614 157 q 664 170 647 165 q 700 181 681 175 l 750 25 q 658 3 707 14 q 529 -8 610 -8 q 286 51 378 -8 q 154 225 194 111 l 54 225 l 54 388 l 124 388 q 123 400 124 392 q 122 417 122 408 q 123 432 122 424 q 124 444 124 440 l 54 444 l 54 607 l 146 607 z "},"⁄":{"ha":488,"x_min":-43,"x_max":532,"o":"m 347 825 l 532 825 l 140 -11 l -43 -11 l 347 825 z "},"∕":{"ha":621,"x_min":-25,"x_max":646,"o":"m 417 1013 l 646 1013 l 204 -175 l -25 -175 l 417 1013 z "},"⁴":{"ha":493,"x_min":28,"x_max":476,"o":"m 403 669 l 476 669 l 463 550 l 403 550 l 403 456 l 256 456 l 256 550 l 28 550 l 28 638 l 138 950 l 288 950 l 188 669 l 256 669 l 256 797 l 403 825 l 403 669 z "},"ð":{"ha":711,"x_min":38,"x_max":686,"o":"m 683 365 q 663 213 683 282 q 602 93 643 143 q 499 15 561 43 q 356 -14 438 -14 q 212 11 272 -14 q 113 82 151 36 q 56 193 75 128 q 38 339 38 258 q 58 483 38 417 q 119 599 79 550 q 217 675 158 647 q 353 703 276 703 q 407 697 382 703 q 453 681 432 690 q 437 725 446 704 q 418 765 428 746 l 279 726 l 247 851 l 326 865 l 256 915 l 363 1044 q 446 983 408 1017 q 515 911 483 949 l 654 953 l 686 828 l 586 807 q 661 598 639 710 q 683 365 683 486 m 354 539 q 313 525 329 539 q 287 486 296 511 q 274 427 278 461 q 271 354 271 393 q 275 276 271 313 q 290 211 279 239 q 319 167 300 183 q 368 151 339 151 q 410 167 393 151 q 435 208 426 182 q 448 268 444 233 q 451 340 451 303 q 447 418 451 382 q 433 481 443 454 q 403 524 422 508 q 354 539 383 539 z "},"¸":{"ha":683,"x_min":156,"x_max":497,"o":"m 385 21 l 368 -51 q 460 -87 422 -57 q 497 -175 497 -117 q 483 -244 497 -215 q 443 -292 468 -274 q 385 -319 418 -311 q 315 -328 353 -328 q 229 -319 271 -328 q 156 -294 188 -310 l 188 -190 q 232 -204 207 -199 q 279 -210 257 -210 q 342 -176 342 -210 q 329 -152 342 -162 q 298 -135 317 -142 q 256 -124 279 -128 q 211 -121 233 -121 l 247 21 l 385 21 z "},"â":{"ha":756,"x_min":38,"x_max":739,"o":"m 663 335 q 674 196 663 251 q 700 107 685 140 q 739 44 717 67 l 563 -11 q 535 24 547 3 q 513 67 524 42 q 496 128 503 93 q 426 27 472 63 q 306 -8 381 -8 q 187 17 238 -8 q 103 87 136 42 q 53 196 69 132 q 38 338 38 260 q 63 485 38 417 q 135 602 89 553 q 244 679 181 651 q 386 707 308 707 q 478 701 429 707 q 567 687 526 694 q 634 673 607 679 q 663 667 661 667 l 663 335 m 342 153 q 381 171 363 153 q 414 219 400 189 q 435 290 428 250 q 443 374 443 329 l 443 535 q 416 542 433 539 q 386 546 399 546 q 331 531 353 546 q 295 491 308 517 q 276 429 282 465 q 271 351 271 393 q 272 277 271 313 q 281 214 274 242 q 303 169 289 186 q 342 153 317 153 m 121 876 l 392 1150 l 661 876 l 576 774 q 501 815 549 788 q 392 888 453 842 q 283 815 331 842 q 206 774 235 789 l 121 876 z "},"ô":{"ha":722,"x_min":38,"x_max":683,"o":"m 367 711 q 608 617 532 711 q 683 356 683 522 q 663 209 683 276 q 602 92 643 142 q 499 15 561 43 q 356 -14 438 -14 q 212 10 272 -14 q 113 81 151 35 q 56 192 75 126 q 38 340 38 258 q 58 488 38 419 q 119 605 78 556 q 222 683 160 654 q 367 711 283 711 m 354 546 q 313 531 329 546 q 287 491 296 517 q 274 431 278 465 q 271 356 271 396 q 275 276 271 314 q 290 211 279 239 q 319 167 300 183 q 368 151 339 151 q 410 167 393 151 q 435 208 426 182 q 448 268 444 233 q 451 342 451 303 q 447 422 451 385 q 433 486 443 458 q 403 530 422 514 q 354 546 383 546 m 90 876 l 361 1150 l 631 876 l 546 774 q 470 815 518 788 q 361 888 422 842 q 252 815 300 842 q 175 774 204 789 l 90 876 z "},"ê":{"ha":665,"x_min":38,"x_max":633,"o":"m 38 329 q 65 494 38 422 q 140 613 92 565 q 251 686 188 661 q 390 711 315 711 q 501 695 456 711 q 576 651 547 679 q 619 584 606 622 q 633 501 633 546 q 608 407 633 451 q 537 328 583 363 q 424 272 490 294 q 275 243 358 250 q 310 176 285 201 q 389 150 336 150 q 454 157 419 150 q 518 172 489 164 q 586 194 553 182 l 628 50 q 546 18 590 32 q 459 -3 508 7 q 354 -12 410 -12 q 209 13 269 -12 q 110 82 149 38 q 55 190 72 126 q 38 329 38 253 m 363 554 q 317 539 336 554 q 288 499 299 524 q 271 443 276 474 q 264 383 265 413 q 334 396 306 385 q 381 424 363 407 q 407 460 399 440 q 415 496 415 479 q 401 538 415 522 q 363 554 386 554 m 90 876 l 361 1150 l 631 876 l 546 774 q 470 815 518 788 q 361 888 422 842 q 252 815 300 842 q 175 774 204 789 l 90 876 z "},"û":{"ha":774,"x_min":72,"x_max":750,"o":"m 454 697 l 674 697 l 674 335 q 685 196 674 251 q 711 107 696 140 q 750 44 728 67 l 574 -11 q 549 21 561 1 q 526 60 538 36 q 508 117 515 85 q 409 22 472 51 q 272 -8 346 -8 q 180 9 218 -8 q 117 58 142 26 q 83 133 93 89 q 72 233 72 178 l 72 697 l 293 697 l 293 263 q 305 184 293 214 q 349 154 317 154 q 421 206 388 154 q 454 350 454 258 l 454 697 m 107 876 l 378 1150 l 647 876 l 563 774 q 487 815 535 788 q 378 888 439 842 q 269 815 317 842 q 192 774 221 789 l 107 876 z "},"î":{"ha":383,"x_min":-85,"x_max":424,"o":"m 235 -6 q 107 35 156 -6 q 58 151 58 76 l 58 697 l 278 697 l 278 214 q 288 171 278 182 q 317 160 297 160 q 339 162 328 160 q 353 165 350 164 l 372 28 q 360 22 371 26 q 331 10 349 17 q 288 -1 313 4 q 235 -6 263 -6 m 169 861 q 82 797 122 824 q 1 746 42 769 l -85 847 l 169 1103 l 424 847 l 338 746 q 258 797 299 769 q 169 861 217 824 z "},"Â":{"ha":901,"x_min":-1,"x_max":904,"o":"m 356 940 l 560 940 l 904 0 l 672 0 l 603 226 l 299 226 l 226 0 l -1 0 l 356 940 m 551 396 q 523 480 538 436 q 495 565 508 524 q 471 644 482 607 q 451 706 460 681 q 432 642 443 679 q 408 564 421 606 q 380 479 394 522 q 351 396 365 436 l 551 396 m 172 1111 l 457 1356 l 742 1111 l 656 1007 q 574 1044 628 1018 q 457 1115 521 1071 q 340 1045 393 1071 q 257 1007 286 1019 l 172 1111 z "},"Ô":{"ha":963,"x_min":51,"x_max":910,"o":"m 490 953 q 679 919 600 953 q 810 825 758 886 q 885 676 861 764 q 910 478 910 588 q 883 280 910 369 q 801 126 856 190 q 665 27 747 63 q 472 -8 583 -8 q 283 23 363 -8 q 151 115 203 54 q 76 261 100 175 q 51 458 51 347 q 78 658 51 567 q 160 815 106 749 q 297 917 214 881 q 490 953 379 953 m 471 790 q 340 706 381 790 q 299 474 299 622 q 308 344 299 403 q 338 244 317 286 q 397 178 360 201 q 492 154 435 154 q 622 235 582 154 q 663 464 663 315 q 653 594 663 535 q 623 698 644 654 q 564 766 601 742 q 471 790 526 790 m 215 1111 l 500 1356 l 785 1111 l 699 1007 q 617 1044 671 1018 q 500 1115 564 1071 q 383 1045 436 1071 q 300 1007 329 1019 l 215 1111 z "},"Ê":{"ha":728,"x_min":86,"x_max":704,"o":"m 86 940 l 685 940 l 685 772 l 315 772 l 315 571 l 622 571 l 596 406 l 315 406 l 315 168 l 704 168 l 704 0 l 86 0 l 86 940 m 132 1111 l 417 1356 l 701 1111 l 615 1007 q 534 1044 588 1018 q 417 1115 481 1071 q 299 1045 353 1071 q 217 1007 246 1019 l 132 1111 z "},"Û":{"ha":928,"x_min":72,"x_max":856,"o":"m 300 940 l 300 381 q 313 279 300 319 q 349 214 326 239 q 404 178 372 189 q 472 168 436 168 q 587 222 547 168 q 626 381 626 275 l 626 940 l 856 940 l 856 368 q 835 225 856 293 q 766 105 814 157 q 642 22 718 53 q 454 -8 565 -8 q 274 23 347 -8 q 157 106 201 54 q 92 226 113 158 q 72 368 72 294 l 72 940 l 300 940 m 179 1111 l 464 1356 l 749 1111 l 663 1007 q 581 1044 635 1018 q 464 1115 528 1071 q 347 1045 400 1071 q 264 1007 293 1019 l 179 1111 z "},"Î":{"ha":401,"x_min":-76,"x_max":493,"o":"m 86 940 l 315 940 l 315 0 l 86 0 l 86 940 m -76 1111 l 208 1356 l 493 1111 l 407 1007 q 326 1044 379 1018 q 208 1115 272 1071 q 91 1045 144 1071 q 8 1007 38 1019 l -76 1111 z "},"Ì":{"ha":401,"x_min":-142,"x_max":315,"o":"m 86 940 l 315 940 l 315 0 l 86 0 l 86 940 m 199 1007 q 148 1024 186 1011 q 61 1062 110 1038 q -42 1123 13 1086 q -142 1210 -96 1160 l -3 1350 l 285 1110 l 199 1007 z "},"Ò":{"ha":963,"x_min":51,"x_max":910,"o":"m 490 953 q 679 919 600 953 q 810 825 758 886 q 885 676 861 764 q 910 478 910 588 q 883 280 910 369 q 801 126 856 190 q 665 27 747 63 q 472 -8 583 -8 q 283 23 363 -8 q 151 115 203 54 q 76 261 100 175 q 51 458 51 347 q 78 658 51 567 q 160 815 106 749 q 297 917 214 881 q 490 953 379 953 m 471 790 q 340 706 381 790 q 299 474 299 622 q 308 344 299 403 q 338 244 317 286 q 397 178 360 201 q 492 154 435 154 q 622 235 582 154 q 663 464 663 315 q 653 594 663 535 q 623 698 644 654 q 564 766 601 742 q 471 790 526 790 m 490 1007 q 440 1024 478 1011 q 353 1062 401 1038 q 250 1123 304 1086 q 150 1210 196 1160 l 289 1350 l 576 1110 l 490 1007 z "},"È":{"ha":728,"x_min":67,"x_max":704,"o":"m 86 940 l 685 940 l 685 772 l 315 772 l 315 571 l 622 571 l 596 406 l 315 406 l 315 168 l 704 168 l 704 0 l 86 0 l 86 940 m 407 1007 q 356 1024 394 1011 q 269 1062 318 1038 q 167 1123 221 1086 q 67 1210 113 1160 l 206 1350 l 493 1110 l 407 1007 z "},"Ù":{"ha":928,"x_min":72,"x_max":856,"o":"m 300 940 l 300 381 q 313 279 300 319 q 349 214 326 239 q 404 178 372 189 q 472 168 436 168 q 587 222 547 168 q 626 381 626 275 l 626 940 l 856 940 l 856 368 q 835 225 856 293 q 766 105 814 157 q 642 22 718 53 q 454 -8 565 -8 q 274 23 347 -8 q 157 106 201 54 q 92 226 113 158 q 72 368 72 294 l 72 940 l 300 940 m 454 1007 q 403 1024 442 1011 q 317 1062 365 1038 q 214 1123 268 1086 q 114 1210 160 1160 l 253 1350 l 540 1110 l 454 1007 z "},"À":{"ha":901,"x_min":-1,"x_max":904,"o":"m 356 940 l 560 940 l 904 0 l 672 0 l 603 226 l 299 226 l 226 0 l -1 0 l 356 940 m 551 396 q 523 480 538 436 q 495 565 508 524 q 471 644 482 607 q 451 706 460 681 q 432 642 443 679 q 408 564 421 606 q 380 479 394 522 q 351 396 365 436 l 551 396 m 447 1007 q 397 1024 435 1011 q 310 1062 358 1038 q 207 1123 261 1086 q 107 1210 153 1160 l 246 1350 l 533 1110 l 447 1007 z "},"à":{"ha":756,"x_min":38,"x_max":739,"o":"m 663 335 q 674 196 663 251 q 700 107 685 140 q 739 44 717 67 l 563 -11 q 535 24 547 3 q 513 67 524 42 q 496 128 503 93 q 426 27 472 63 q 306 -8 381 -8 q 187 17 238 -8 q 103 87 136 42 q 53 196 69 132 q 38 338 38 260 q 63 485 38 417 q 135 602 89 553 q 244 679 181 651 q 386 707 308 707 q 478 701 429 707 q 567 687 526 694 q 634 673 607 679 q 663 667 661 667 l 663 335 m 342 153 q 381 171 363 153 q 414 219 400 189 q 435 290 428 250 q 443 374 443 329 l 443 535 q 416 542 433 539 q 386 546 399 546 q 331 531 353 546 q 295 491 308 517 q 276 429 282 465 q 271 351 271 393 q 272 277 271 313 q 281 214 274 242 q 303 169 289 186 q 342 153 317 153 m 399 774 q 361 799 393 778 q 284 853 329 819 q 188 932 239 886 q 93 1032 136 978 l 238 1169 l 492 872 l 399 774 z "},"ò":{"ha":722,"x_min":38,"x_max":683,"o":"m 367 711 q 608 617 532 711 q 683 356 683 522 q 663 209 683 276 q 602 92 643 142 q 499 15 561 43 q 356 -14 438 -14 q 212 10 272 -14 q 113 81 151 35 q 56 192 75 126 q 38 340 38 258 q 58 488 38 419 q 119 605 78 556 q 222 683 160 654 q 367 711 283 711 m 354 546 q 313 531 329 546 q 287 491 296 517 q 274 431 278 465 q 271 356 271 396 q 275 276 271 314 q 290 211 279 239 q 319 167 300 183 q 368 151 339 151 q 410 167 393 151 q 435 208 426 182 q 448 268 444 233 q 451 342 451 303 q 447 422 451 385 q 433 486 443 458 q 403 530 422 514 q 354 546 383 546 m 368 774 q 331 799 363 778 q 253 853 299 819 q 157 932 208 886 q 63 1032 106 978 l 207 1169 l 461 872 l 368 774 z "},"è":{"ha":665,"x_min":38,"x_max":633,"o":"m 38 329 q 65 494 38 422 q 140 613 92 565 q 251 686 188 661 q 390 711 315 711 q 501 695 456 711 q 576 651 547 679 q 619 584 606 622 q 633 501 633 546 q 608 407 633 451 q 537 328 583 363 q 424 272 490 294 q 275 243 358 250 q 310 176 285 201 q 389 150 336 150 q 454 157 419 150 q 518 172 489 164 q 586 194 553 182 l 628 50 q 546 18 590 32 q 459 -3 508 7 q 354 -12 410 -12 q 209 13 269 -12 q 110 82 149 38 q 55 190 72 126 q 38 329 38 253 m 363 554 q 317 539 336 554 q 288 499 299 524 q 271 443 276 474 q 264 383 265 413 q 334 396 306 385 q 381 424 363 407 q 407 460 399 440 q 415 496 415 479 q 401 538 415 522 q 363 554 386 554 m 369 774 q 332 799 364 778 q 255 853 300 819 q 158 932 210 886 q 64 1032 107 978 l 208 1169 l 463 872 l 369 774 z "},"ù":{"ha":774,"x_min":72,"x_max":750,"o":"m 454 697 l 674 697 l 674 335 q 685 196 674 251 q 711 107 696 140 q 750 44 728 67 l 574 -11 q 549 21 561 1 q 526 60 538 36 q 508 117 515 85 q 409 22 472 51 q 272 -8 346 -8 q 180 9 218 -8 q 117 58 142 26 q 83 133 93 89 q 72 233 72 178 l 72 697 l 293 697 l 293 263 q 305 184 293 214 q 349 154 317 154 q 421 206 388 154 q 454 350 454 258 l 454 697 m 386 774 q 349 799 381 778 q 272 853 317 819 q 175 932 226 886 q 81 1032 124 978 l 225 1169 l 479 872 l 386 774 z "},"ì":{"ha":383,"x_min":-86,"x_max":372,"o":"m 235 -6 q 107 35 156 -6 q 58 151 58 76 l 58 697 l 278 697 l 278 214 q 288 171 278 182 q 317 160 297 160 q 339 162 328 160 q 353 165 350 164 l 372 28 q 360 22 371 26 q 331 10 349 17 q 288 -1 313 4 q 235 -6 263 -6 m 168 750 q 85 825 128 783 q 3 908 49 861 q -86 1010 -42 954 l 58 1146 l 261 849 l 168 750 z "},"Í":{"ha":401,"x_min":86,"x_max":543,"o":"m 86 940 l 315 940 l 315 0 l 86 0 l 86 940 m 117 1110 l 404 1350 l 543 1210 q 442 1123 497 1160 q 339 1062 388 1086 q 253 1024 290 1038 q 203 1007 215 1011 l 117 1110 z "},"Ó":{"ha":963,"x_min":51,"x_max":910,"o":"m 490 953 q 679 919 600 953 q 810 825 758 886 q 885 676 861 764 q 910 478 910 588 q 883 280 910 369 q 801 126 856 190 q 665 27 747 63 q 472 -8 583 -8 q 283 23 363 -8 q 151 115 203 54 q 76 261 100 175 q 51 458 51 347 q 78 658 51 567 q 160 815 106 749 q 297 917 214 881 q 490 953 379 953 m 471 790 q 340 706 381 790 q 299 474 299 622 q 308 344 299 403 q 338 244 317 286 q 397 178 360 201 q 492 154 435 154 q 622 235 582 154 q 663 464 663 315 q 653 594 663 535 q 623 698 644 654 q 564 766 601 742 q 471 790 526 790 m 408 1110 l 696 1350 l 835 1210 q 734 1123 789 1160 q 631 1062 679 1086 q 544 1024 582 1038 q 494 1007 507 1011 l 408 1110 z "},"É":{"ha":728,"x_min":86,"x_max":753,"o":"m 86 940 l 685 940 l 685 772 l 315 772 l 315 571 l 622 571 l 596 406 l 315 406 l 315 168 l 704 168 l 704 0 l 86 0 l 86 940 m 326 1110 l 614 1350 l 753 1210 q 652 1123 707 1160 q 549 1062 597 1086 q 463 1024 500 1038 q 413 1007 425 1011 l 326 1110 z "},"Ú":{"ha":928,"x_min":72,"x_max":856,"o":"m 300 940 l 300 381 q 313 279 300 319 q 349 214 326 239 q 404 178 372 189 q 472 168 436 168 q 587 222 547 168 q 626 381 626 275 l 626 940 l 856 940 l 856 368 q 835 225 856 293 q 766 105 814 157 q 642 22 718 53 q 454 -8 565 -8 q 274 23 347 -8 q 157 106 201 54 q 92 226 113 158 q 72 368 72 294 l 72 940 l 300 940 m 372 1110 l 660 1350 l 799 1210 q 698 1123 753 1160 q 594 1062 643 1086 q 508 1024 546 1038 q 458 1007 471 1011 l 372 1110 z "},"Á":{"ha":901,"x_min":-1,"x_max":904,"o":"m 356 940 l 560 940 l 904 0 l 672 0 l 603 226 l 299 226 l 226 0 l -1 0 l 356 940 m 551 396 q 523 480 538 436 q 495 565 508 524 q 471 644 482 607 q 451 706 460 681 q 432 642 443 679 q 408 564 421 606 q 380 479 394 522 q 351 396 365 436 l 551 396 m 367 1110 l 654 1350 l 793 1210 q 692 1123 747 1160 q 589 1062 638 1086 q 503 1024 540 1038 q 453 1007 465 1011 l 367 1110 z "},"Ý":{"ha":797,"x_min":-11,"x_max":807,"o":"m 279 361 l -11 940 l 231 940 l 397 581 l 568 940 l 807 940 l 507 349 l 507 0 l 279 0 l 279 361 m 317 1110 l 604 1350 l 743 1210 q 642 1123 697 1160 q 539 1062 588 1086 q 453 1024 490 1038 q 403 1007 415 1011 l 317 1110 z "},"ý":{"ha":760,"x_min":72,"x_max":721,"o":"m 669 321 q 677 238 669 276 q 694 163 685 200 q 713 88 704 126 q 721 4 721 49 q 639 -220 721 -142 q 415 -299 557 -299 q 282 -283 351 -299 q 146 -240 213 -268 l 197 -71 q 304 -103 258 -92 q 401 -115 350 -115 q 491 -83 457 -115 q 525 8 525 -51 q 521 59 525 36 q 506 110 517 82 q 407 19 469 47 q 272 -8 344 -8 q 180 9 218 -8 q 117 58 142 26 q 83 133 93 89 q 72 233 72 178 l 72 697 l 293 697 l 293 263 q 305 184 293 214 q 349 154 317 154 q 385 167 367 154 q 419 205 404 181 q 444 264 435 229 q 454 342 454 299 l 454 697 l 675 697 l 669 321 m 288 872 l 540 1169 l 685 1032 q 588 931 640 978 q 489 849 535 883 q 381 774 435 807 l 288 872 z "},"á":{"ha":756,"x_min":38,"x_max":739,"o":"m 663 335 q 674 196 663 251 q 700 107 685 140 q 739 44 717 67 l 563 -11 q 535 24 547 3 q 513 67 524 42 q 496 128 503 93 q 426 27 472 63 q 306 -8 381 -8 q 187 17 238 -8 q 103 87 136 42 q 53 196 69 132 q 38 338 38 260 q 63 485 38 417 q 135 602 89 553 q 244 679 181 651 q 386 707 308 707 q 478 701 429 707 q 567 687 526 694 q 634 673 607 679 q 663 667 661 667 l 663 335 m 342 153 q 381 171 363 153 q 414 219 400 189 q 435 290 428 250 q 443 374 443 329 l 443 535 q 416 542 433 539 q 386 546 399 546 q 331 531 353 546 q 295 491 308 517 q 276 429 282 465 q 271 351 271 393 q 272 277 271 313 q 281 214 274 242 q 303 169 289 186 q 342 153 317 153 m 303 872 l 556 1169 l 700 1032 q 603 931 656 978 q 504 849 550 883 q 396 774 450 807 l 303 872 z "},"ó":{"ha":722,"x_min":38,"x_max":683,"o":"m 367 711 q 608 617 532 711 q 683 356 683 522 q 663 209 683 276 q 602 92 643 142 q 499 15 561 43 q 356 -14 438 -14 q 212 10 272 -14 q 113 81 151 35 q 56 192 75 126 q 38 340 38 258 q 58 488 38 419 q 119 605 78 556 q 222 683 160 654 q 367 711 283 711 m 354 546 q 313 531 329 546 q 287 491 296 517 q 274 431 278 465 q 271 356 271 396 q 275 276 271 314 q 290 211 279 239 q 319 167 300 183 q 368 151 339 151 q 410 167 393 151 q 435 208 426 182 q 448 268 444 233 q 451 342 451 303 q 447 422 451 385 q 433 486 443 458 q 403 530 422 514 q 354 546 383 546 m 272 872 l 525 1169 l 669 1032 q 572 931 625 978 q 474 849 519 883 q 365 774 419 807 l 272 872 z "},"é":{"ha":665,"x_min":38,"x_max":669,"o":"m 38 329 q 65 494 38 422 q 140 613 92 565 q 251 686 188 661 q 390 711 315 711 q 501 695 456 711 q 576 651 547 679 q 619 584 606 622 q 633 501 633 546 q 608 407 633 451 q 537 328 583 363 q 424 272 490 294 q 275 243 358 250 q 310 176 285 201 q 389 150 336 150 q 454 157 419 150 q 518 172 489 164 q 586 194 553 182 l 628 50 q 546 18 590 32 q 459 -3 508 7 q 354 -12 410 -12 q 209 13 269 -12 q 110 82 149 38 q 55 190 72 126 q 38 329 38 253 m 363 554 q 317 539 336 554 q 288 499 299 524 q 271 443 276 474 q 264 383 265 413 q 334 396 306 385 q 381 424 363 407 q 407 460 399 440 q 415 496 415 479 q 401 538 415 522 q 363 554 386 554 m 272 872 l 525 1169 l 669 1032 q 572 931 625 978 q 474 849 519 883 q 365 774 419 807 l 272 872 z "},"ú":{"ha":774,"x_min":72,"x_max":750,"o":"m 454 697 l 674 697 l 674 335 q 685 196 674 251 q 711 107 696 140 q 750 44 728 67 l 574 -11 q 549 21 561 1 q 526 60 538 36 q 508 117 515 85 q 409 22 472 51 q 272 -8 346 -8 q 180 9 218 -8 q 117 58 142 26 q 83 133 93 89 q 72 233 72 178 l 72 697 l 293 697 l 293 263 q 305 184 293 214 q 349 154 317 154 q 421 206 388 154 q 454 350 454 258 l 454 697 m 289 872 l 542 1169 l 686 1032 q 589 931 642 978 q 490 849 536 883 q 382 774 436 807 l 289 872 z "},"í":{"ha":383,"x_min":58,"x_max":407,"o":"m 235 -6 q 107 35 156 -6 q 58 151 58 76 l 58 697 l 278 697 l 278 214 q 288 171 278 182 q 317 160 297 160 q 339 162 328 160 q 353 165 350 164 l 372 28 q 360 22 371 26 q 331 10 349 17 q 288 -1 313 4 q 235 -6 263 -6 m 60 849 l 261 1146 l 407 1010 q 317 908 363 954 q 236 825 272 861 q 153 750 193 783 l 60 849 z "},"õ":{"ha":722,"x_min":38,"x_max":683,"o":"m 367 711 q 608 617 532 711 q 683 356 683 522 q 663 209 683 276 q 602 92 643 142 q 499 15 561 43 q 356 -14 438 -14 q 212 10 272 -14 q 113 81 151 35 q 56 192 75 126 q 38 340 38 258 q 58 488 38 419 q 119 605 78 556 q 222 683 160 654 q 367 711 283 711 m 354 546 q 313 531 329 546 q 287 491 296 517 q 274 431 278 465 q 271 356 271 396 q 275 276 271 314 q 290 211 279 239 q 319 167 300 183 q 368 151 339 151 q 410 167 393 151 q 435 208 426 182 q 448 268 444 233 q 451 342 451 303 q 447 422 451 385 q 433 486 443 458 q 403 530 422 514 q 354 546 383 546 m 138 953 q 174 968 154 961 q 212 980 190 975 q 260 985 233 985 q 370 971 314 985 q 482 957 426 957 q 527 960 507 957 q 563 967 547 963 q 593 976 579 971 l 593 838 q 563 821 579 828 q 527 810 547 814 q 482 806 507 806 q 370 819 426 806 q 260 833 314 833 q 212 830 233 833 q 174 824 190 826 q 138 814 154 818 l 138 953 z "},"ã":{"ha":756,"x_min":38,"x_max":739,"o":"m 663 335 q 674 196 663 251 q 700 107 685 140 q 739 44 717 67 l 563 -11 q 535 24 547 3 q 513 67 524 42 q 496 128 503 93 q 426 27 472 63 q 306 -8 381 -8 q 187 17 238 -8 q 103 87 136 42 q 53 196 69 132 q 38 338 38 260 q 63 485 38 417 q 135 602 89 553 q 244 679 181 651 q 386 707 308 707 q 478 701 429 707 q 567 687 526 694 q 634 673 607 679 q 663 667 661 667 l 663 335 m 342 153 q 381 171 363 153 q 414 219 400 189 q 435 290 428 250 q 443 374 443 329 l 443 535 q 416 542 433 539 q 386 546 399 546 q 331 531 353 546 q 295 491 308 517 q 276 429 282 465 q 271 351 271 393 q 272 277 271 313 q 281 214 274 242 q 303 169 289 186 q 342 153 317 153 m 168 953 q 204 968 185 961 q 242 980 221 975 q 290 985 264 985 q 401 971 344 985 q 513 957 457 957 q 558 960 538 957 q 593 967 578 963 q 624 976 610 971 l 624 838 q 593 821 610 828 q 558 810 578 814 q 513 806 538 806 q 401 819 457 806 q 290 833 344 833 q 242 830 264 833 q 204 824 221 826 q 168 814 185 818 l 168 953 z "},"ñ":{"ha":774,"x_min":24,"x_max":701,"o":"m 481 0 l 481 433 q 469 512 481 482 q 425 542 457 542 q 353 491 386 542 q 319 349 319 440 l 319 0 l 100 0 l 100 361 q 88 499 100 444 q 61 589 76 554 q 24 651 44 628 l 200 707 q 225 675 213 693 q 247 635 236 660 q 264 581 257 611 q 363 676 300 646 q 501 707 426 707 q 656 641 610 707 q 701 465 701 575 l 701 0 l 481 0 m 236 953 q 272 968 253 961 q 310 980 289 975 q 358 985 332 985 q 469 971 413 985 q 581 957 525 957 q 626 960 606 957 q 661 967 646 963 q 692 976 678 971 l 692 838 q 661 821 678 828 q 626 810 646 814 q 581 806 606 806 q 469 819 525 806 q 358 833 413 833 q 310 830 332 833 q 272 824 289 826 q 236 814 253 818 l 236 953 z "},"Õ":{"ha":963,"x_min":51,"x_max":910,"o":"m 490 953 q 679 919 600 953 q 810 825 758 886 q 885 676 861 764 q 910 478 910 588 q 883 280 910 369 q 801 126 856 190 q 665 27 747 63 q 472 -8 583 -8 q 283 23 363 -8 q 151 115 203 54 q 76 261 100 175 q 51 458 51 347 q 78 658 51 567 q 160 815 106 749 q 297 917 214 881 q 490 953 379 953 m 471 790 q 340 706 381 790 q 299 474 299 622 q 308 344 299 403 q 338 244 317 286 q 397 178 360 201 q 492 154 435 154 q 622 235 582 154 q 663 464 663 315 q 653 594 663 535 q 623 698 644 654 q 564 766 601 742 q 471 790 526 790 m 256 1190 q 292 1206 272 1199 q 330 1217 308 1213 q 378 1222 351 1222 q 488 1208 432 1222 q 600 1194 544 1194 q 645 1197 625 1194 q 681 1204 665 1200 q 711 1214 697 1208 l 711 1075 q 681 1058 697 1065 q 645 1047 665 1051 q 600 1043 625 1043 q 488 1057 544 1043 q 378 1071 432 1071 q 330 1067 351 1071 q 292 1061 308 1064 q 256 1051 272 1056 l 256 1190 z "},"Ã":{"ha":901,"x_min":-1,"x_max":904,"o":"m 356 940 l 560 940 l 904 0 l 672 0 l 603 226 l 299 226 l 226 0 l -1 0 l 356 940 m 551 396 q 523 480 538 436 q 495 565 508 524 q 471 644 482 607 q 451 706 460 681 q 432 642 443 679 q 408 564 421 606 q 380 479 394 522 q 351 396 365 436 l 551 396 m 214 1190 q 250 1206 231 1199 q 288 1217 267 1213 q 336 1222 310 1222 q 447 1208 390 1222 q 558 1194 503 1194 q 603 1197 583 1194 q 639 1204 624 1200 q 669 1214 656 1208 l 669 1075 q 639 1058 656 1065 q 603 1047 624 1051 q 558 1043 583 1043 q 447 1057 503 1043 q 336 1071 390 1071 q 288 1067 310 1071 q 250 1061 267 1064 q 214 1051 231 1056 l 214 1190 z "},"Ñ":{"ha":957,"x_min":86,"x_max":871,"o":"m 642 940 l 871 940 l 871 0 l 675 0 l 407 406 q 384 442 399 418 q 353 491 369 465 q 323 541 338 517 q 299 581 308 565 q 302 530 300 560 q 306 469 304 500 q 310 410 308 439 q 311 361 311 381 l 315 0 l 86 0 l 86 940 l 274 940 l 544 538 q 572 494 557 518 q 603 444 588 469 q 633 397 619 419 q 657 357 647 374 q 654 408 656 379 q 651 469 653 438 q 647 529 649 500 q 646 581 646 558 l 642 940 m 250 1194 q 286 1210 267 1203 q 324 1222 303 1217 q 372 1226 346 1226 q 483 1213 426 1226 q 594 1199 539 1199 q 640 1201 619 1199 q 675 1208 660 1204 q 706 1218 692 1213 l 706 1079 q 675 1063 692 1069 q 640 1051 660 1056 q 594 1047 619 1047 q 483 1061 539 1047 q 372 1075 426 1075 q 324 1072 346 1075 q 286 1065 303 1068 q 250 1056 267 1060 l 250 1194 z "},"ç":{"ha":582,"x_min":38,"x_max":578,"o":"m 469 500 q 435 533 453 519 q 389 547 417 547 q 351 542 372 547 q 313 516 331 536 q 283 458 294 496 q 271 353 271 419 q 284 248 271 288 q 317 188 297 208 q 362 160 338 167 q 408 153 386 153 q 444 157 425 153 q 481 166 464 161 q 511 176 499 171 q 525 181 524 181 l 565 35 l 554 29 q 523 15 543 22 q 475 1 503 8 q 413 -10 447 -6 l 403 -51 q 494 -87 457 -57 q 532 -175 532 -117 q 517 -244 532 -215 q 478 -292 503 -274 q 420 -319 453 -311 q 350 -328 388 -328 q 264 -319 306 -328 q 190 -294 222 -310 l 222 -190 q 267 -204 242 -199 q 314 -210 292 -210 q 376 -176 376 -210 q 364 -152 376 -162 q 333 -135 351 -142 q 291 -124 314 -128 q 246 -121 268 -121 l 275 -6 q 167 35 213 6 q 94 107 122 64 q 51 206 65 150 q 38 329 38 263 q 63 494 38 422 q 134 614 89 565 q 241 687 179 663 q 375 711 303 711 q 494 684 443 711 q 578 613 546 657 l 469 500 z "},"ï":{"ha":383,"x_min":-51,"x_max":392,"o":"m 235 -6 q 107 35 156 -6 q 58 151 58 76 l 58 697 l 278 697 l 278 214 q 288 171 278 182 q 317 160 297 160 q 339 162 328 160 q 353 165 350 164 l 372 28 q 360 22 371 26 q 331 10 349 17 q 288 -1 313 4 q 235 -6 263 -6 m 151 899 q 125 824 151 854 q 47 793 99 793 q -26 823 -1 793 q -51 894 -51 853 q -26 970 -51 939 q 51 1001 0 1001 q 126 971 100 1001 q 151 899 151 940 m 392 899 q 366 824 392 854 q 289 793 340 793 q 215 823 240 793 q 189 894 189 853 q 215 970 189 939 q 293 1001 242 1001 q 367 971 342 1001 q 392 899 392 940 z "},"ä":{"ha":756,"x_min":38,"x_max":739,"o":"m 663 335 q 674 196 663 251 q 700 107 685 140 q 739 44 717 67 l 563 -11 q 535 24 547 3 q 513 67 524 42 q 496 128 503 93 q 426 27 472 63 q 306 -8 381 -8 q 187 17 238 -8 q 103 87 136 42 q 53 196 69 132 q 38 338 38 260 q 63 485 38 417 q 135 602 89 553 q 244 679 181 651 q 386 707 308 707 q 478 701 429 707 q 567 687 526 694 q 634 673 607 679 q 663 667 661 667 l 663 335 m 342 153 q 381 171 363 153 q 414 219 400 189 q 435 290 428 250 q 443 374 443 329 l 443 535 q 416 542 433 539 q 386 546 399 546 q 331 531 353 546 q 295 491 308 517 q 276 429 282 465 q 271 351 271 393 q 272 277 271 313 q 281 214 274 242 q 303 169 289 186 q 342 153 317 153 m 351 926 q 325 850 351 881 q 247 819 299 819 q 173 849 199 819 q 147 921 147 879 q 173 998 147 967 q 251 1029 199 1029 q 326 999 300 1029 q 351 926 351 968 m 650 926 q 624 850 650 881 q 546 819 597 819 q 472 849 497 819 q 446 921 446 879 q 472 998 446 967 q 550 1029 497 1029 q 624 999 599 1029 q 650 926 650 968 z "},"ë":{"ha":665,"x_min":38,"x_max":633,"o":"m 38 329 q 65 494 38 422 q 140 613 92 565 q 251 686 188 661 q 390 711 315 711 q 501 695 456 711 q 576 651 547 679 q 619 584 606 622 q 633 501 633 546 q 608 407 633 451 q 537 328 583 363 q 424 272 490 294 q 275 243 358 250 q 310 176 285 201 q 389 150 336 150 q 454 157 419 150 q 518 172 489 164 q 586 194 553 182 l 628 50 q 546 18 590 32 q 459 -3 508 7 q 354 -12 410 -12 q 209 13 269 -12 q 110 82 149 38 q 55 190 72 126 q 38 329 38 253 m 363 554 q 317 539 336 554 q 288 499 299 524 q 271 443 276 474 q 264 383 265 413 q 334 396 306 385 q 381 424 363 407 q 407 460 399 440 q 415 496 415 479 q 401 538 415 522 q 363 554 386 554 m 321 926 q 294 850 321 881 q 217 819 268 819 q 142 849 168 819 q 117 921 117 879 q 142 998 117 967 q 221 1029 168 1029 q 295 999 269 1029 q 321 926 321 968 m 619 926 q 593 850 619 881 q 515 819 567 819 q 441 849 467 819 q 415 921 415 879 q 441 998 415 967 q 519 1029 467 1029 q 594 999 568 1029 q 619 926 619 968 z "},"ö":{"ha":722,"x_min":38,"x_max":683,"o":"m 367 711 q 608 617 532 711 q 683 356 683 522 q 663 209 683 276 q 602 92 643 142 q 499 15 561 43 q 356 -14 438 -14 q 212 10 272 -14 q 113 81 151 35 q 56 192 75 126 q 38 340 38 258 q 58 488 38 419 q 119 605 78 556 q 222 683 160 654 q 367 711 283 711 m 354 546 q 313 531 329 546 q 287 491 296 517 q 274 431 278 465 q 271 356 271 396 q 275 276 271 314 q 290 211 279 239 q 319 167 300 183 q 368 151 339 151 q 410 167 393 151 q 435 208 426 182 q 448 268 444 233 q 451 342 451 303 q 447 422 451 385 q 433 486 443 458 q 403 530 422 514 q 354 546 383 546 m 321 926 q 294 850 321 881 q 217 819 268 819 q 142 849 168 819 q 117 921 117 879 q 142 998 117 967 q 221 1029 168 1029 q 295 999 269 1029 q 321 926 321 968 m 619 926 q 593 850 619 881 q 515 819 567 819 q 441 849 467 819 q 415 921 415 879 q 441 998 415 967 q 519 1029 467 1029 q 594 999 568 1029 q 619 926 619 968 z "},"ü":{"ha":774,"x_min":72,"x_max":750,"o":"m 454 697 l 674 697 l 674 335 q 685 196 674 251 q 711 107 696 140 q 750 44 728 67 l 574 -11 q 549 21 561 1 q 526 60 538 36 q 508 117 515 85 q 409 22 472 51 q 272 -8 346 -8 q 180 9 218 -8 q 117 58 142 26 q 83 133 93 89 q 72 233 72 178 l 72 697 l 293 697 l 293 263 q 305 184 293 214 q 349 154 317 154 q 421 206 388 154 q 454 350 454 258 l 454 697 m 338 926 q 311 850 338 881 q 233 819 285 819 q 159 849 185 819 q 133 921 133 879 q 159 998 133 967 q 238 1029 185 1029 q 312 999 286 1029 q 338 926 338 968 m 636 926 q 610 850 636 881 q 532 819 583 819 q 458 849 483 819 q 432 921 432 879 q 458 998 432 967 q 536 1029 483 1029 q 610 999 585 1029 q 636 926 636 968 z "},"ÿ":{"ha":760,"x_min":72,"x_max":721,"o":"m 669 321 q 677 238 669 276 q 694 163 685 200 q 713 88 704 126 q 721 4 721 49 q 639 -220 721 -142 q 415 -299 557 -299 q 282 -283 351 -299 q 146 -240 213 -268 l 197 -71 q 304 -103 258 -92 q 401 -115 350 -115 q 491 -83 457 -115 q 525 8 525 -51 q 521 59 525 36 q 506 110 517 82 q 407 19 469 47 q 272 -8 344 -8 q 180 9 218 -8 q 117 58 142 26 q 83 133 93 89 q 72 233 72 178 l 72 697 l 293 697 l 293 263 q 305 184 293 214 q 349 154 317 154 q 385 167 367 154 q 419 205 404 181 q 444 264 435 229 q 454 342 454 299 l 454 697 l 675 697 l 669 321 m 336 926 q 310 850 336 881 q 232 819 283 819 q 158 849 183 819 q 132 921 132 879 q 158 998 132 967 q 236 1029 183 1029 q 310 999 285 1029 q 336 926 336 968 m 635 926 q 608 850 635 881 q 531 819 582 819 q 456 849 482 819 q 431 921 431 879 q 456 998 431 967 q 535 1029 482 1029 q 609 999 583 1029 q 635 926 635 968 z "},"Ï":{"ha":401,"x_min":-50,"x_max":453,"o":"m 86 940 l 315 940 l 315 0 l 86 0 l 86 940 m 154 1142 q 128 1065 154 1096 q 50 1035 101 1035 q -24 1065 1 1035 q -50 1136 -50 1094 q -24 1213 -50 1182 q 54 1244 1 1244 q 128 1214 103 1244 q 154 1142 154 1183 m 453 1142 q 426 1065 453 1096 q 349 1035 400 1035 q 274 1065 300 1035 q 249 1136 249 1094 q 274 1213 249 1182 q 353 1244 300 1244 q 427 1214 401 1244 q 453 1142 453 1183 z "},"Ä":{"ha":901,"x_min":-1,"x_max":904,"o":"m 356 940 l 560 940 l 904 0 l 672 0 l 603 226 l 299 226 l 226 0 l -1 0 l 356 940 m 551 396 q 523 480 538 436 q 495 565 508 524 q 471 644 482 607 q 451 706 460 681 q 432 642 443 679 q 408 564 421 606 q 380 479 394 522 q 351 396 365 436 l 551 396 m 403 1142 q 376 1065 403 1096 q 299 1035 350 1035 q 224 1065 250 1035 q 199 1136 199 1094 q 224 1213 199 1182 q 303 1244 250 1244 q 377 1214 351 1244 q 403 1142 403 1183 m 701 1142 q 675 1065 701 1096 q 597 1035 649 1035 q 523 1065 549 1035 q 497 1136 497 1094 q 523 1213 497 1182 q 601 1244 549 1244 q 676 1214 650 1244 q 701 1142 701 1183 z "},"Ë":{"ha":728,"x_min":86,"x_max":704,"o":"m 86 940 l 685 940 l 685 772 l 315 772 l 315 571 l 622 571 l 596 406 l 315 406 l 315 168 l 704 168 l 704 0 l 86 0 l 86 940 m 332 1142 q 306 1065 332 1096 q 228 1035 279 1035 q 153 1065 179 1035 q 128 1136 128 1094 q 153 1213 128 1182 q 232 1244 179 1244 q 306 1214 281 1244 q 332 1142 332 1183 m 631 1142 q 604 1065 631 1096 q 526 1035 578 1035 q 452 1065 478 1035 q 426 1136 426 1094 q 452 1213 426 1182 q 531 1244 478 1244 q 605 1214 579 1244 q 631 1142 631 1183 z "},"Ö":{"ha":963,"x_min":51,"x_max":910,"o":"m 490 953 q 679 919 600 953 q 810 825 758 886 q 885 676 861 764 q 910 478 910 588 q 883 280 910 369 q 801 126 856 190 q 665 27 747 63 q 472 -8 583 -8 q 283 23 363 -8 q 151 115 203 54 q 76 261 100 175 q 51 458 51 347 q 78 658 51 567 q 160 815 106 749 q 297 917 214 881 q 490 953 379 953 m 471 790 q 340 706 381 790 q 299 474 299 622 q 308 344 299 403 q 338 244 317 286 q 397 178 360 201 q 492 154 435 154 q 622 235 582 154 q 663 464 663 315 q 653 594 663 535 q 623 698 644 654 q 564 766 601 742 q 471 790 526 790 m 433 1142 q 407 1065 433 1096 q 329 1035 381 1035 q 255 1065 281 1035 q 229 1136 229 1094 q 255 1213 229 1182 q 333 1244 281 1244 q 408 1214 382 1244 q 433 1142 433 1183 m 732 1142 q 706 1065 732 1096 q 628 1035 679 1035 q 553 1065 579 1035 q 528 1136 528 1094 q 553 1213 528 1182 q 632 1244 579 1244 q 706 1214 681 1244 q 732 1142 732 1183 z "},"Ü":{"ha":928,"x_min":72,"x_max":856,"o":"m 300 940 l 300 381 q 313 279 300 319 q 349 214 326 239 q 404 178 372 189 q 472 168 436 168 q 587 222 547 168 q 626 381 626 275 l 626 940 l 856 940 l 856 368 q 835 225 856 293 q 766 105 814 157 q 642 22 718 53 q 454 -8 565 -8 q 274 23 347 -8 q 157 106 201 54 q 92 226 113 158 q 72 368 72 294 l 72 940 l 300 940 m 417 1142 q 390 1065 417 1096 q 313 1035 364 1035 q 238 1065 264 1035 q 213 1136 213 1094 q 238 1213 213 1182 q 317 1244 264 1244 q 391 1214 365 1244 q 417 1142 417 1183 m 715 1142 q 689 1065 715 1096 q 611 1035 663 1035 q 537 1065 563 1035 q 511 1136 511 1094 q 537 1213 511 1182 q 615 1244 563 1244 q 690 1214 664 1244 q 715 1142 715 1183 z "},"Ÿ":{"ha":797,"x_min":-11,"x_max":807,"o":"m 279 361 l -11 940 l 231 940 l 397 581 l 568 940 l 807 940 l 507 349 l 507 0 l 279 0 l 279 361 m 346 1142 q 319 1065 346 1096 q 242 1035 293 1035 q 167 1065 193 1035 q 142 1136 142 1094 q 167 1213 142 1182 q 246 1244 193 1244 q 320 1214 294 1244 q 346 1142 346 1183 m 644 1142 q 618 1065 644 1096 q 540 1035 592 1035 q 466 1065 492 1035 q 440 1136 440 1094 q 466 1213 440 1182 q 544 1244 492 1244 q 619 1214 593 1244 q 644 1142 644 1183 z "},"Ç":{"ha":763,"x_min":54,"x_max":746,"o":"m 621 711 q 546 774 582 758 q 474 790 510 790 q 342 706 383 790 q 301 474 301 622 q 310 344 301 403 q 342 243 319 285 q 401 178 364 201 q 493 154 438 154 q 588 166 542 154 q 674 193 635 178 l 724 38 q 635 10 688 22 q 515 -7 582 -3 l 506 -51 q 597 -87 560 -57 q 635 -175 635 -117 q 620 -244 635 -215 q 581 -292 606 -274 q 523 -319 556 -311 q 453 -328 490 -328 q 367 -319 408 -328 q 293 -294 325 -310 l 325 -190 q 369 -204 344 -199 q 417 -210 394 -210 q 479 -176 479 -210 q 467 -152 479 -162 q 435 -135 454 -142 q 394 -124 417 -128 q 349 -121 371 -121 l 379 -3 q 132 140 210 21 q 54 458 54 260 q 80 657 54 567 q 158 813 106 747 q 288 916 210 879 q 474 953 367 953 q 572 943 529 953 q 646 917 614 933 q 702 881 678 901 q 746 838 726 860 l 621 711 z "},"Å":{"ha":901,"x_min":-1,"x_max":904,"o":"m 299 999 q 342 1110 299 1069 q 451 1151 385 1151 q 560 1108 521 1151 q 600 999 600 1065 q 592 948 600 971 q 572 906 585 925 l 904 0 l 672 0 l 603 226 l 299 226 l 226 0 l -1 0 l 336 892 q 299 999 299 931 m 551 396 q 523 480 538 436 q 495 565 508 524 q 471 644 482 607 q 451 706 460 681 q 432 642 443 679 q 408 564 421 606 q 380 479 394 522 q 351 396 365 436 l 551 396 m 401 1000 q 413 958 401 972 q 443 940 425 943 l 456 940 q 497 999 497 944 q 485 1040 497 1025 q 449 1056 472 1056 q 401 1000 401 1056 z "},"å":{"ha":756,"x_min":38,"x_max":739,"o":"m 663 335 q 674 196 663 251 q 700 107 685 140 q 739 44 717 67 l 563 -11 q 535 24 547 3 q 513 67 524 42 q 496 128 503 93 q 426 27 472 63 q 306 -8 381 -8 q 187 17 238 -8 q 103 87 136 42 q 53 196 69 132 q 38 338 38 260 q 63 485 38 417 q 135 602 89 553 q 244 679 181 651 q 386 707 308 707 q 478 701 429 707 q 567 687 526 694 q 634 673 607 679 q 663 667 661 667 l 663 335 m 342 153 q 381 171 363 153 q 414 219 400 189 q 435 290 428 250 q 443 374 443 329 l 443 535 q 416 542 433 539 q 386 546 399 546 q 331 531 353 546 q 295 491 308 517 q 276 429 282 465 q 271 351 271 393 q 272 277 271 313 q 281 214 274 242 q 303 169 289 186 q 342 153 317 153 m 233 907 q 276 1019 233 978 q 386 1060 319 1060 q 495 1017 456 1060 q 535 907 535 974 q 492 796 535 838 q 382 754 449 754 q 273 798 313 754 q 233 907 233 842 m 336 908 q 350 863 336 878 q 383 849 364 849 q 432 907 432 849 q 419 949 432 933 q 383 964 407 964 q 336 908 336 964 z "},"d":{"ha":756,"x_min":38,"x_max":739,"o":"m 563 -11 l 554 -1 q 535 25 546 7 q 513 69 524 43 q 496 128 501 94 q 426 27 472 63 q 306 -8 381 -8 q 187 17 238 -8 q 103 87 136 42 q 53 196 69 132 q 38 338 38 260 q 63 485 38 417 q 135 602 89 553 q 244 679 181 651 q 386 707 308 707 q 413 706 399 707 q 443 703 428 704 l 443 1006 l 663 969 l 663 335 q 674 197 663 253 q 700 108 686 142 q 726 60 714 74 l 739 44 l 563 -11 m 342 153 q 381 171 363 153 q 414 219 400 189 q 435 290 428 250 q 443 374 443 329 l 443 535 q 416 542 433 539 q 386 546 399 546 q 331 531 353 546 q 295 491 308 517 q 276 429 282 465 q 271 351 271 393 q 272 277 271 313 q 281 214 274 242 q 303 169 289 186 q 342 153 317 153 z "},"g":{"ha":749,"x_min":38,"x_max":711,"o":"m 188 -71 q 294 -103 249 -92 q 390 -115 339 -115 q 480 -83 446 -115 q 514 8 514 -51 q 494 122 514 72 q 425 26 471 60 q 306 -8 379 -8 q 187 17 238 -8 q 103 87 136 42 q 53 196 69 132 q 38 338 38 260 q 63 485 38 417 q 135 602 89 553 q 244 679 181 651 q 386 707 308 707 q 473 701 428 707 q 558 689 518 696 q 627 676 597 682 q 667 667 657 669 l 661 321 q 669 238 661 276 q 685 163 676 200 q 703 88 694 126 q 711 4 711 49 q 628 -220 711 -142 q 404 -299 546 -299 q 271 -283 340 -299 q 136 -240 201 -268 l 188 -71 m 342 153 q 382 172 364 153 q 414 222 400 190 q 435 296 428 254 q 443 383 443 338 l 443 535 q 416 542 433 539 q 386 546 399 546 q 331 531 353 546 q 295 491 308 517 q 276 429 282 465 q 271 351 271 393 q 272 277 271 313 q 281 214 274 242 q 303 169 289 186 q 342 153 317 153 z "}}}
